<svg xmlns="http://www.w3.org/2000/svg" version="1.1" xmlns:xlink="http://www.w3.org/1999/xlink" xmlns:svgjs="http://svgjs.dev/svgjs" width="1440" height="560" preserveAspectRatio="none" viewBox="0 0 1440 560"><g mask="url(&quot;#SvgjsMask1008&quot;)" fill="none"><path d="M-83.46 353.97L-83.46 353.97" stroke="rgba(39, 104, 144, 0.03)" stroke-width="1.5"></path><path d="M-83.46 353.97L73.3 342.67" stroke="rgba(39, 104, 144, 0.03)" stroke-width="1.5"></path><path d="M-83.46 353.97L-40.89 520.84" stroke="rgba(39, 104, 144, 0.03)" stroke-width="1.5"></path><path d="M-40.89 520.84L-40.89 520.84" stroke="rgba(39, 104, 144, 0.03)" stroke-width="1.5"></path><path d="M-40.89 520.84L41.03 528.18" stroke="rgba(39, 104, 144, 0.03)" stroke-width="1.5"></path><path d="M-40.89 520.84L-110.66 651.56" stroke="rgba(39, 104, 144, 0.03)" stroke-width="1.5"></path><path d="M-40.89 520.84L50.22 652.93" stroke="rgba(39, 104, 144, 0.03)" stroke-width="1.5"></path><path d="M-40.89 520.84L73.3 342.67" stroke="rgba(39, 104, 144, 0.03)" stroke-width="1.5"></path><path d="M-40.89 520.84L194.84 685.8" stroke="rgba(39, 104, 144, 0.03)" stroke-width="1.5"></path><path d="M-110.66 651.56L-110.66 651.56" stroke="rgba(39, 104, 144, 0.03)" stroke-width="1.5"></path><path d="M-110.66 651.56L50.22 652.93" stroke="rgba(39, 104, 144, 0.03)" stroke-width="1.5"></path><path d="M-110.66 651.56L41.03 528.18" stroke="rgba(39, 104, 144, 0.03)" stroke-width="1.5"></path><path d="M73.3 342.67L73.3 342.67" stroke="rgba(39, 104, 144, 0.03)" stroke-width="1.5"></path><path d="M73.3 342.67L41.03 528.18" stroke="rgba(39, 104, 144, 0.03)" stroke-width="1.5"></path><path d="M41.03 528.18L41.03 528.18" stroke="rgba(39, 104, 144, 0.03)" stroke-width="1.5"></path><path d="M50.22 652.93L50.22 652.93" stroke="rgba(39, 104, 144, 0.03)" stroke-width="1.5"></path><path d="M50.22 652.93L41.03 528.18" stroke="rgba(39, 104, 144, 0.03)" stroke-width="1.5"></path><path d="M50.22 652.93L194.84 685.8" stroke="rgba(39, 104, 144, 0.03)" stroke-width="1.5"></path><path d="M50.22 652.93L262.09 510.83" stroke="rgba(39, 104, 144, 0.03)" stroke-width="1.5"></path><path d="M50.22 652.93L347.52 708.03" stroke="rgba(39, 104, 144, 0.03)" stroke-width="1.5"></path><path d="M262.09 510.83L262.09 510.83" stroke="rgba(39, 104, 144, 0.03)" stroke-width="1.5"></path><path d="M262.09 510.83L359.66 501.74" stroke="rgba(39, 104, 144, 0.03)" stroke-width="1.5"></path><path d="M262.09 510.83L194.84 685.8" stroke="rgba(39, 104, 144, 0.03)" stroke-width="1.5"></path><path d="M262.09 510.83L351.66 345.62" stroke="rgba(39, 104, 144, 0.03)" stroke-width="1.5"></path><path d="M262.09 510.83L347.52 708.03" stroke="rgba(39, 104, 144, 0.03)" stroke-width="1.5"></path><path d="M262.09 510.83L41.03 528.18" stroke="rgba(39, 104, 144, 0.03)" stroke-width="1.5"></path><path d="M194.84 685.8L194.84 685.8" stroke="rgba(39, 104, 144, 0.03)" stroke-width="1.5"></path><path d="M194.84 685.8L347.52 708.03" stroke="rgba(39, 104, 144, 0.03)" stroke-width="1.5"></path><path d="M351.66 345.62L351.66 345.62" stroke="rgba(39, 104, 144, 0.03)" stroke-width="1.5"></path><path d="M351.66 345.62L359.66 501.74" stroke="rgba(39, 104, 144, 0.03)" stroke-width="1.5"></path><path d="M351.66 345.62L559.96 352.18" stroke="rgba(39, 104, 144, 0.03)" stroke-width="1.5"></path><path d="M351.66 345.62L73.3 342.67" stroke="rgba(39, 104, 144, 0.03)" stroke-width="1.5"></path><path d="M359.66 501.74L359.66 501.74" stroke="rgba(39, 104, 144, 0.03)" stroke-width="1.5"></path><path d="M359.66 501.74L491.9 641.5" stroke="rgba(39, 104, 144, 0.03)" stroke-width="1.5"></path><path d="M359.66 501.74L347.52 708.03" stroke="rgba(39, 104, 144, 0.03)" stroke-width="1.5"></path><path d="M347.52 708.03L347.52 708.03" stroke="rgba(39, 104, 144, 0.03)" stroke-width="1.5"></path><path d="M347.52 708.03L491.9 641.5" stroke="rgba(39, 104, 144, 0.03)" stroke-width="1.5"></path><path d="M559.96 352.18L559.96 352.18" stroke="rgba(39, 104, 144, 0.03)" stroke-width="1.5"></path><path d="M559.96 352.18L649.24 237.03" stroke="rgba(39, 104, 144, 0.03)" stroke-width="1.5"></path><path d="M559.96 352.18L703.08 403.56" stroke="rgba(39, 104, 144, 0.03)" stroke-width="1.5"></path><path d="M559.96 352.18L639.88 541.46" stroke="rgba(39, 104, 144, 0.03)" stroke-width="1.5"></path><path d="M491.9 641.5L491.9 641.5" stroke="rgba(39, 104, 144, 0.03)" stroke-width="1.5"></path><path d="M491.9 641.5L658.16 658.87" stroke="rgba(39, 104, 144, 0.03)" stroke-width="1.5"></path><path d="M491.9 641.5L639.88 541.46" stroke="rgba(39, 104, 144, 0.03)" stroke-width="1.5"></path><path d="M649.24 237.03L649.24 237.03" stroke="rgba(39, 104, 144, 0.03)" stroke-width="1.5"></path><path d="M649.24 237.03L798.75 257.48" stroke="rgba(39, 104, 144, 0.03)" stroke-width="1.5"></path><path d="M649.24 237.03L703.08 403.56" stroke="rgba(39, 104, 144, 0.03)" stroke-width="1.5"></path><path d="M649.24 237.03L793.67 394.48" stroke="rgba(39, 104, 144, 0.03)" stroke-width="1.5"></path><path d="M649.24 237.03L853.26 95.82" stroke="rgba(39, 104, 144, 0.03)" stroke-width="1.5"></path><path d="M649.24 237.03L639.88 541.46" stroke="rgba(39, 104, 144, 0.03)" stroke-width="1.5"></path><path d="M703.08 403.56L703.08 403.56" stroke="rgba(39, 104, 144, 0.03)" stroke-width="1.5"></path><path d="M703.08 403.56L793.67 394.48" stroke="rgba(39, 104, 144, 0.03)" stroke-width="1.5"></path><path d="M703.08 403.56L639.88 541.46" stroke="rgba(39, 104, 144, 0.03)" stroke-width="1.5"></path><path d="M703.08 403.56L798.75 257.48" stroke="rgba(39, 104, 144, 0.03)" stroke-width="1.5"></path><path d="M703.08 403.56L815.31 560.56" stroke="rgba(39, 104, 144, 0.03)" stroke-width="1.5"></path><path d="M639.88 541.46L639.88 541.46" stroke="rgba(39, 104, 144, 0.03)" stroke-width="1.5"></path><path d="M639.88 541.46L658.16 658.87" stroke="rgba(39, 104, 144, 0.03)" stroke-width="1.5"></path><path d="M658.16 658.87L658.16 658.87" stroke="rgba(39, 104, 144, 0.03)" stroke-width="1.5"></path><path d="M853.26 95.82L853.26 95.82" stroke="rgba(39, 104, 144, 0.03)" stroke-width="1.5"></path><path d="M853.26 95.82L1011.93 95.6" stroke="rgba(39, 104, 144, 0.03)" stroke-width="1.5"></path><path d="M853.26 95.82L798.75 257.48" stroke="rgba(39, 104, 144, 0.03)" stroke-width="1.5"></path><path d="M853.26 95.82L998.89 237.84" stroke="rgba(39, 104, 144, 0.03)" stroke-width="1.5"></path><path d="M853.26 95.82L973.59 -102.17" stroke="rgba(39, 104, 144, 0.03)" stroke-width="1.5"></path><path d="M853.26 95.82L1135.83 103.77" stroke="rgba(39, 104, 144, 0.03)" stroke-width="1.5"></path><path d="M798.75 257.48L798.75 257.48" stroke="rgba(39, 104, 144, 0.03)" stroke-width="1.5"></path><path d="M798.75 257.48L793.67 394.48" stroke="rgba(39, 104, 144, 0.03)" stroke-width="1.5"></path><path d="M793.67 394.48L793.67 394.48" stroke="rgba(39, 104, 144, 0.03)" stroke-width="1.5"></path><path d="M793.67 394.48L937.65 401.58" stroke="rgba(39, 104, 144, 0.03)" stroke-width="1.5"></path><path d="M815.31 560.56L815.31 560.56" stroke="rgba(39, 104, 144, 0.03)" stroke-width="1.5"></path><path d="M815.31 560.56L797.45 692.39" stroke="rgba(39, 104, 144, 0.03)" stroke-width="1.5"></path><path d="M815.31 560.56L943.11 507.72" stroke="rgba(39, 104, 144, 0.03)" stroke-width="1.5"></path><path d="M815.31 560.56L793.67 394.48" stroke="rgba(39, 104, 144, 0.03)" stroke-width="1.5"></path><path d="M815.31 560.56L639.88 541.46" stroke="rgba(39, 104, 144, 0.03)" stroke-width="1.5"></path><path d="M815.31 560.56L658.16 658.87" stroke="rgba(39, 104, 144, 0.03)" stroke-width="1.5"></path><path d="M797.45 692.39L797.45 692.39" stroke="rgba(39, 104, 144, 0.03)" stroke-width="1.5"></path><path d="M797.45 692.39L658.16 658.87" stroke="rgba(39, 104, 144, 0.03)" stroke-width="1.5"></path><path d="M797.45 692.39L1003.96 641.04" stroke="rgba(39, 104, 144, 0.03)" stroke-width="1.5"></path><path d="M973.59 -102.17L973.59 -102.17" stroke="rgba(39, 104, 144, 0.03)" stroke-width="1.5"></path><path d="M973.59 -102.17L1160.07 -87.76" stroke="rgba(39, 104, 144, 0.03)" stroke-width="1.5"></path><path d="M973.59 -102.17L1011.93 95.6" stroke="rgba(39, 104, 144, 0.03)" stroke-width="1.5"></path><path d="M973.59 -102.17L1135.83 103.77" stroke="rgba(39, 104, 144, 0.03)" stroke-width="1.5"></path><path d="M973.59 -102.17L1291.11 -45.08" stroke="rgba(39, 104, 144, 0.03)" stroke-width="1.5"></path><path d="M973.59 -102.17L998.89 237.84" stroke="rgba(39, 104, 144, 0.03)" stroke-width="1.5"></path><path d="M1011.93 95.6L1011.93 95.6" stroke="rgba(39, 104, 144, 0.03)" stroke-width="1.5"></path><path d="M1011.93 95.6L1135.83 103.77" stroke="rgba(39, 104, 144, 0.03)" stroke-width="1.5"></path><path d="M1011.93 95.6L998.89 237.84" stroke="rgba(39, 104, 144, 0.03)" stroke-width="1.5"></path><path d="M1011.93 95.6L1100.72 253.33" stroke="rgba(39, 104, 144, 0.03)" stroke-width="1.5"></path><path d="M998.89 237.84L998.89 237.84" stroke="rgba(39, 104, 144, 0.03)" stroke-width="1.5"></path><path d="M998.89 237.84L1100.72 253.33" stroke="rgba(39, 104, 144, 0.03)" stroke-width="1.5"></path><path d="M998.89 237.84L1101.52 358.65" stroke="rgba(39, 104, 144, 0.03)" stroke-width="1.5"></path><path d="M998.89 237.84L937.65 401.58" stroke="rgba(39, 104, 144, 0.03)" stroke-width="1.5"></path><path d="M998.89 237.84L1135.83 103.77" stroke="rgba(39, 104, 144, 0.03)" stroke-width="1.5"></path><path d="M998.89 237.84L798.75 257.48" stroke="rgba(39, 104, 144, 0.03)" stroke-width="1.5"></path><path d="M937.65 401.58L937.65 401.58" stroke="rgba(39, 104, 144, 0.03)" stroke-width="1.5"></path><path d="M937.65 401.58L943.11 507.72" stroke="rgba(39, 104, 144, 0.03)" stroke-width="1.5"></path><path d="M937.65 401.58L1101.52 358.65" stroke="rgba(39, 104, 144, 0.03)" stroke-width="1.5"></path><path d="M943.11 507.72L943.11 507.72" stroke="rgba(39, 104, 144, 0.03)" stroke-width="1.5"></path><path d="M943.11 507.72L1003.96 641.04" stroke="rgba(39, 104, 144, 0.03)" stroke-width="1.5"></path><path d="M943.11 507.72L793.67 394.48" stroke="rgba(39, 104, 144, 0.03)" stroke-width="1.5"></path><path d="M943.11 507.72L1146.64 502.99" stroke="rgba(39, 104, 144, 0.03)" stroke-width="1.5"></path><path d="M1003.96 641.04L1003.96 641.04" stroke="rgba(39, 104, 144, 0.03)" stroke-width="1.5"></path><path d="M1003.96 641.04L1111.75 641.79" stroke="rgba(39, 104, 144, 0.03)" stroke-width="1.5"></path><path d="M1003.96 641.04L1146.64 502.99" stroke="rgba(39, 104, 144, 0.03)" stroke-width="1.5"></path><path d="M1160.07 -87.76L1160.07 -87.76" stroke="rgba(39, 104, 144, 0.03)" stroke-width="1.5"></path><path d="M1160.07 -87.76L1291.11 -45.08" stroke="rgba(39, 104, 144, 0.03)" stroke-width="1.5"></path><path d="M1160.07 -87.76L1135.83 103.77" stroke="rgba(39, 104, 144, 0.03)" stroke-width="1.5"></path><path d="M1160.07 -87.76L1302.74 61.59" stroke="rgba(39, 104, 144, 0.03)" stroke-width="1.5"></path><path d="M1135.83 103.77L1135.83 103.77" stroke="rgba(39, 104, 144, 0.03)" stroke-width="1.5"></path><path d="M1135.83 103.77L1100.72 253.33" stroke="rgba(39, 104, 144, 0.03)" stroke-width="1.5"></path><path d="M1135.83 103.77L1302.74 61.59" stroke="rgba(39, 104, 144, 0.03)" stroke-width="1.5"></path><path d="M1100.72 253.33L1100.72 253.33" stroke="rgba(39, 104, 144, 0.03)" stroke-width="1.5"></path><path d="M1100.72 253.33L1101.52 358.65" stroke="rgba(39, 104, 144, 0.03)" stroke-width="1.5"></path><path d="M1101.52 358.65L1101.52 358.65" stroke="rgba(39, 104, 144, 0.03)" stroke-width="1.5"></path><path d="M1101.52 358.65L1146.64 502.99" stroke="rgba(39, 104, 144, 0.03)" stroke-width="1.5"></path><path d="M1146.64 502.99L1146.64 502.99" stroke="rgba(39, 104, 144, 0.03)" stroke-width="1.5"></path><path d="M1146.64 502.99L1111.75 641.79" stroke="rgba(39, 104, 144, 0.03)" stroke-width="1.5"></path><path d="M1146.64 502.99L1301.14 527.17" stroke="rgba(39, 104, 144, 0.03)" stroke-width="1.5"></path><path d="M1146.64 502.99L1300.84 407.99" stroke="rgba(39, 104, 144, 0.03)" stroke-width="1.5"></path><path d="M1111.75 641.79L1111.75 641.79" stroke="rgba(39, 104, 144, 0.03)" stroke-width="1.5"></path><path d="M1291.11 -45.08L1291.11 -45.08" stroke="rgba(39, 104, 144, 0.03)" stroke-width="1.5"></path><path d="M1291.11 -45.08L1391.15 -73.07" stroke="rgba(39, 104, 144, 0.03)" stroke-width="1.5"></path><path d="M1291.11 -45.08L1302.74 61.59" stroke="rgba(39, 104, 144, 0.03)" stroke-width="1.5"></path><path d="M1302.74 61.59L1302.74 61.59" stroke="rgba(39, 104, 144, 0.03)" stroke-width="1.5"></path><path d="M1302.74 61.59L1400.94 112.47" stroke="rgba(39, 104, 144, 0.03)" stroke-width="1.5"></path><path d="M1302.74 61.59L1391.15 -73.07" stroke="rgba(39, 104, 144, 0.03)" stroke-width="1.5"></path><path d="M1266.66 244.37L1266.66 244.37" stroke="rgba(39, 104, 144, 0.03)" stroke-width="1.5"></path><path d="M1266.66 244.37L1402.52 229.63" stroke="rgba(39, 104, 144, 0.03)" stroke-width="1.5"></path><path d="M1266.66 244.37L1100.72 253.33" stroke="rgba(39, 104, 144, 0.03)" stroke-width="1.5"></path><path d="M1300.84 407.99L1300.84 407.99" stroke="rgba(39, 104, 144, 0.03)" stroke-width="1.5"></path><path d="M1300.84 407.99L1392.7 367.11" stroke="rgba(39, 104, 144, 0.03)" stroke-width="1.5"></path><path d="M1300.84 407.99L1301.14 527.17" stroke="rgba(39, 104, 144, 0.03)" stroke-width="1.5"></path><path d="M1300.84 407.99L1266.66 244.37" stroke="rgba(39, 104, 144, 0.03)" stroke-width="1.5"></path><path d="M1300.84 407.99L1444.49 546.65" stroke="rgba(39, 104, 144, 0.03)" stroke-width="1.5"></path><path d="M1300.84 407.99L1402.52 229.63" stroke="rgba(39, 104, 144, 0.03)" stroke-width="1.5"></path><path d="M1301.14 527.17L1301.14 527.17" stroke="rgba(39, 104, 144, 0.03)" stroke-width="1.5"></path><path d="M1301.14 527.17L1444.49 546.65" stroke="rgba(39, 104, 144, 0.03)" stroke-width="1.5"></path><path d="M1301.14 527.17L1392.7 367.11" stroke="rgba(39, 104, 144, 0.03)" stroke-width="1.5"></path><path d="M1282.42 711.66L1282.42 711.66" stroke="rgba(39, 104, 144, 0.03)" stroke-width="1.5"></path><path d="M1282.42 711.66L1434.13 673.74" stroke="rgba(39, 104, 144, 0.03)" stroke-width="1.5"></path><path d="M1282.42 711.66L1111.75 641.79" stroke="rgba(39, 104, 144, 0.03)" stroke-width="1.5"></path><path d="M1282.42 711.66L1301.14 527.17" stroke="rgba(39, 104, 144, 0.03)" stroke-width="1.5"></path><path d="M1282.42 711.66L1444.49 546.65" stroke="rgba(39, 104, 144, 0.03)" stroke-width="1.5"></path><path d="M1391.15 -73.07L1391.15 -73.07" stroke="rgba(39, 104, 144, 0.03)" stroke-width="1.5"></path><path d="M1391.15 -73.07L1400.94 112.47" stroke="rgba(39, 104, 144, 0.03)" stroke-width="1.5"></path><path d="M1391.15 -73.07L1609.56 -71.09" stroke="rgba(39, 104, 144, 0.03)" stroke-width="1.5"></path><path d="M1400.94 112.47L1400.94 112.47" stroke="rgba(39, 104, 144, 0.03)" stroke-width="1.5"></path><path d="M1400.94 112.47L1402.52 229.63" stroke="rgba(39, 104, 144, 0.03)" stroke-width="1.5"></path><path d="M1402.52 229.63L1402.52 229.63" stroke="rgba(39, 104, 144, 0.03)" stroke-width="1.5"></path><path d="M1402.52 229.63L1392.7 367.11" stroke="rgba(39, 104, 144, 0.03)" stroke-width="1.5"></path><path d="M1402.52 229.63L1553.77 230.4" stroke="rgba(39, 104, 144, 0.03)" stroke-width="1.5"></path><path d="M1402.52 229.63L1302.74 61.59" stroke="rgba(39, 104, 144, 0.03)" stroke-width="1.5"></path><path d="M1392.7 367.11L1392.7 367.11" stroke="rgba(39, 104, 144, 0.03)" stroke-width="1.5"></path><path d="M1392.7 367.11L1266.66 244.37" stroke="rgba(39, 104, 144, 0.03)" stroke-width="1.5"></path><path d="M1392.7 367.11L1577.12 351.76" stroke="rgba(39, 104, 144, 0.03)" stroke-width="1.5"></path><path d="M1444.49 546.65L1444.49 546.65" stroke="rgba(39, 104, 144, 0.03)" stroke-width="1.5"></path><path d="M1444.49 546.65L1434.13 673.74" stroke="rgba(39, 104, 144, 0.03)" stroke-width="1.5"></path><path d="M1444.49 546.65L1589.32 528.26" stroke="rgba(39, 104, 144, 0.03)" stroke-width="1.5"></path><path d="M1444.49 546.65L1392.7 367.11" stroke="rgba(39, 104, 144, 0.03)" stroke-width="1.5"></path><path d="M1444.49 546.65L1567.75 700.55" stroke="rgba(39, 104, 144, 0.03)" stroke-width="1.5"></path><path d="M1434.13 673.74L1434.13 673.74" stroke="rgba(39, 104, 144, 0.03)" stroke-width="1.5"></path><path d="M1434.13 673.74L1567.75 700.55" stroke="rgba(39, 104, 144, 0.03)" stroke-width="1.5"></path><path d="M1434.13 673.74L1301.14 527.17" stroke="rgba(39, 104, 144, 0.03)" stroke-width="1.5"></path><path d="M1609.56 -71.09L1609.56 -71.09" stroke="rgba(39, 104, 144, 0.03)" stroke-width="1.5"></path><path d="M1609.56 -71.09L1545.34 90.39" stroke="rgba(39, 104, 144, 0.03)" stroke-width="1.5"></path><path d="M1609.56 -71.09L1400.94 112.47" stroke="rgba(39, 104, 144, 0.03)" stroke-width="1.5"></path><path d="M1609.56 -71.09L1553.77 230.4" stroke="rgba(39, 104, 144, 0.03)" stroke-width="1.5"></path><path d="M1609.56 -71.09L1291.11 -45.08" stroke="rgba(39, 104, 144, 0.03)" stroke-width="1.5"></path><path d="M1609.56 -71.09L1302.74 61.59" stroke="rgba(39, 104, 144, 0.03)" stroke-width="1.5"></path><path d="M1545.34 90.39L1545.34 90.39" stroke="rgba(39, 104, 144, 0.03)" stroke-width="1.5"></path><path d="M1545.34 90.39L1553.77 230.4" stroke="rgba(39, 104, 144, 0.03)" stroke-width="1.5"></path><path d="M1545.34 90.39L1400.94 112.47" stroke="rgba(39, 104, 144, 0.03)" stroke-width="1.5"></path><path d="M1545.34 90.39L1402.52 229.63" stroke="rgba(39, 104, 144, 0.03)" stroke-width="1.5"></path><path d="M1545.34 90.39L1391.15 -73.07" stroke="rgba(39, 104, 144, 0.03)" stroke-width="1.5"></path><path d="M1553.77 230.4L1553.77 230.4" stroke="rgba(39, 104, 144, 0.03)" stroke-width="1.5"></path><path d="M1553.77 230.4L1577.12 351.76" stroke="rgba(39, 104, 144, 0.03)" stroke-width="1.5"></path><path d="M1553.77 230.4L1400.94 112.47" stroke="rgba(39, 104, 144, 0.03)" stroke-width="1.5"></path><path d="M1577.12 351.76L1577.12 351.76" stroke="rgba(39, 104, 144, 0.03)" stroke-width="1.5"></path><path d="M1577.12 351.76L1589.32 528.26" stroke="rgba(39, 104, 144, 0.03)" stroke-width="1.5"></path><path d="M1589.32 528.26L1589.32 528.26" stroke="rgba(39, 104, 144, 0.03)" stroke-width="1.5"></path><path d="M1589.32 528.26L1567.75 700.55" stroke="rgba(39, 104, 144, 0.03)" stroke-width="1.5"></path><path d="M1589.32 528.26L1434.13 673.74" stroke="rgba(39, 104, 144, 0.03)" stroke-width="1.5"></path><path d="M1589.32 528.26L1392.7 367.11" stroke="rgba(39, 104, 144, 0.03)" stroke-width="1.5"></path><path d="M1589.32 528.26L1301.14 527.17" stroke="rgba(39, 104, 144, 0.03)" stroke-width="1.5"></path><path d="M1567.75 700.55L1567.75 700.55" stroke="rgba(39, 104, 144, 0.03)" stroke-width="1.5"></path><circle r="5" cx="-83.46" cy="353.97" fill="rgba(39, 104, 144, 0.03)"></circle><circle r="5" cx="-40.89" cy="520.84" fill="rgba(39, 104, 144, 0.03)"></circle><circle r="5" cx="-110.66" cy="651.56" fill="rgba(39, 104, 144, 0.03)"></circle><circle r="5" cx="73.3" cy="342.67" fill="rgba(39, 104, 144, 0.03)"></circle><circle r="5" cx="41.03" cy="528.18" fill="rgba(39, 104, 144, 0.03)"></circle><circle r="5" cx="50.22" cy="652.93" fill="rgba(39, 104, 144, 0.03)"></circle><circle r="5" cx="262.09" cy="510.83" fill="rgba(39, 104, 144, 0.03)"></circle><circle r="5" cx="194.84" cy="685.8" fill="rgba(39, 104, 144, 0.03)"></circle><circle r="5" cx="351.66" cy="345.62" fill="rgba(39, 104, 144, 0.03)"></circle><circle r="5" cx="359.66" cy="501.74" fill="rgba(39, 104, 144, 0.03)"></circle><circle r="5" cx="347.52" cy="708.03" fill="rgba(39, 104, 144, 0.03)"></circle><circle r="5" cx="559.96" cy="352.18" fill="rgba(39, 104, 144, 0.03)"></circle><circle r="5" cx="491.9" cy="641.5" fill="rgba(39, 104, 144, 0.03)"></circle><circle r="5" cx="649.24" cy="237.03" fill="rgba(39, 104, 144, 0.03)"></circle><circle r="5" cx="703.08" cy="403.56" fill="rgba(39, 104, 144, 0.03)"></circle><circle r="5" cx="639.88" cy="541.46" fill="rgba(39, 104, 144, 0.03)"></circle><circle r="5" cx="658.16" cy="658.87" fill="rgba(39, 104, 144, 0.03)"></circle><circle r="5" cx="853.26" cy="95.82" fill="rgba(39, 104, 144, 0.03)"></circle><circle r="5" cx="798.75" cy="257.48" fill="rgba(39, 104, 144, 0.03)"></circle><circle r="5" cx="793.67" cy="394.48" fill="rgba(39, 104, 144, 0.03)"></circle><circle r="5" cx="815.31" cy="560.56" fill="rgba(39, 104, 144, 0.03)"></circle><circle r="5" cx="797.45" cy="692.39" fill="rgba(39, 104, 144, 0.03)"></circle><circle r="5" cx="973.59" cy="-102.17" fill="rgba(39, 104, 144, 0.03)"></circle><circle r="5" cx="1011.93" cy="95.6" fill="rgba(39, 104, 144, 0.03)"></circle><circle r="5" cx="998.89" cy="237.84" fill="rgba(39, 104, 144, 0.03)"></circle><circle r="5" cx="937.65" cy="401.58" fill="rgba(39, 104, 144, 0.03)"></circle><circle r="5" cx="943.11" cy="507.72" fill="rgba(39, 104, 144, 0.03)"></circle><circle r="5" cx="1003.96" cy="641.04" fill="rgba(39, 104, 144, 0.03)"></circle><circle r="5" cx="1160.07" cy="-87.76" fill="rgba(39, 104, 144, 0.03)"></circle><circle r="5" cx="1135.83" cy="103.77" fill="rgba(39, 104, 144, 0.03)"></circle><circle r="5" cx="1100.72" cy="253.33" fill="rgba(39, 104, 144, 0.03)"></circle><circle r="5" cx="1101.52" cy="358.65" fill="rgba(39, 104, 144, 0.03)"></circle><circle r="5" cx="1146.64" cy="502.99" fill="rgba(39, 104, 144, 0.03)"></circle><circle r="5" cx="1111.75" cy="641.79" fill="rgba(39, 104, 144, 0.03)"></circle><circle r="5" cx="1291.11" cy="-45.08" fill="rgba(39, 104, 144, 0.03)"></circle><circle r="5" cx="1302.74" cy="61.59" fill="rgba(39, 104, 144, 0.03)"></circle><circle r="5" cx="1266.66" cy="244.37" fill="rgba(39, 104, 144, 0.03)"></circle><circle r="5" cx="1300.84" cy="407.99" fill="rgba(39, 104, 144, 0.03)"></circle><circle r="5" cx="1301.14" cy="527.17" fill="rgba(39, 104, 144, 0.03)"></circle><circle r="5" cx="1282.42" cy="711.66" fill="rgba(39, 104, 144, 0.03)"></circle><circle r="5" cx="1391.15" cy="-73.07" fill="rgba(39, 104, 144, 0.03)"></circle><circle r="5" cx="1400.94" cy="112.47" fill="rgba(39, 104, 144, 0.03)"></circle><circle r="5" cx="1402.52" cy="229.63" fill="rgba(39, 104, 144, 0.03)"></circle><circle r="5" cx="1392.7" cy="367.11" fill="rgba(39, 104, 144, 0.03)"></circle><circle r="5" cx="1444.49" cy="546.65" fill="rgba(39, 104, 144, 0.03)"></circle><circle r="5" cx="1434.13" cy="673.74" fill="rgba(39, 104, 144, 0.03)"></circle><circle r="5" cx="1609.56" cy="-71.09" fill="rgba(39, 104, 144, 0.03)"></circle><circle r="5" cx="1545.34" cy="90.39" fill="rgba(39, 104, 144, 0.03)"></circle><circle r="5" cx="1553.77" cy="230.4" fill="rgba(39, 104, 144, 0.03)"></circle><circle r="5" cx="1577.12" cy="351.76" fill="rgba(39, 104, 144, 0.03)"></circle><circle r="5" cx="1589.32" cy="528.26" fill="rgba(39, 104, 144, 0.03)"></circle><circle r="5" cx="1567.75" cy="700.55" fill="rgba(39, 104, 144, 0.03)"></circle><path d="M188.19 543.98L188.19 543.98" stroke="hsla(214.10000000000002, 87.9%, 16.8%, 0.03)" stroke-width="1.5"></path><path d="M188.19 543.98L247.66 685.39" stroke="hsla(214.10000000000002, 87.9%, 16.8%, 0.03)" stroke-width="1.5"></path><path d="M188.19 543.98L90.49 666.73" stroke="hsla(214.10000000000002, 87.9%, 16.8%, 0.03)" stroke-width="1.5"></path><path d="M188.19 543.98L348.07 653.42" stroke="hsla(214.10000000000002, 87.9%, 16.8%, 0.03)" stroke-width="1.5"></path><path d="M188.19 543.98L399.38 517.57" stroke="hsla(214.10000000000002, 87.9%, 16.8%, 0.03)" stroke-width="1.5"></path><path d="M247.66 685.39L247.66 685.39" stroke="hsla(214.10000000000002, 87.9%, 16.8%, 0.03)" stroke-width="1.5"></path><path d="M247.66 685.39L348.07 653.42" stroke="hsla(214.10000000000002, 87.9%, 16.8%, 0.03)" stroke-width="1.5"></path><path d="M970.47 380.42L970.47 380.42" stroke="hsla(214.10000000000002, 87.9%, 16.8%, 0.03)" stroke-width="1.5"></path><path d="M970.47 380.42L982.48 494.72" stroke="hsla(214.10000000000002, 87.9%, 16.8%, 0.03)" stroke-width="1.5"></path><path d="M970.47 380.42L1090.45 399.66" stroke="hsla(214.10000000000002, 87.9%, 16.8%, 0.03)" stroke-width="1.5"></path><path d="M970.47 380.42L992.31 248.13" stroke="hsla(214.10000000000002, 87.9%, 16.8%, 0.03)" stroke-width="1.5"></path><path d="M970.47 380.42L810.6 353.17" stroke="hsla(214.10000000000002, 87.9%, 16.8%, 0.03)" stroke-width="1.5"></path><path d="M1010.24 654.49L1010.24 654.49" stroke="hsla(214.10000000000002, 87.9%, 16.8%, 0.03)" stroke-width="1.5"></path><path d="M1010.24 654.49L1116.07 553.25" stroke="hsla(214.10000000000002, 87.9%, 16.8%, 0.03)" stroke-width="1.5"></path><path d="M1010.24 654.49L860.22 692.67" stroke="hsla(214.10000000000002, 87.9%, 16.8%, 0.03)" stroke-width="1.5"></path><path d="M1010.24 654.49L982.48 494.72" stroke="hsla(214.10000000000002, 87.9%, 16.8%, 0.03)" stroke-width="1.5"></path><path d="M1010.24 654.49L820.61 537.8" stroke="hsla(214.10000000000002, 87.9%, 16.8%, 0.03)" stroke-width="1.5"></path><path d="M1010.24 654.49L1253.25 654.35" stroke="hsla(214.10000000000002, 87.9%, 16.8%, 0.03)" stroke-width="1.5"></path><path d="M1143.25 228.82L1143.25 228.82" stroke="hsla(214.10000000000002, 87.9%, 16.8%, 0.03)" stroke-width="1.5"></path><path d="M1143.25 228.82L1247.27 201.46" stroke="hsla(214.10000000000002, 87.9%, 16.8%, 0.03)" stroke-width="1.5"></path><path d="M1143.25 228.82L992.31 248.13" stroke="hsla(214.10000000000002, 87.9%, 16.8%, 0.03)" stroke-width="1.5"></path><path d="M1143.25 228.82L1153.06 68.35" stroke="hsla(214.10000000000002, 87.9%, 16.8%, 0.03)" stroke-width="1.5"></path><path d="M1143.25 228.82L1090.45 399.66" stroke="hsla(214.10000000000002, 87.9%, 16.8%, 0.03)" stroke-width="1.5"></path><path d="M1392.84 345.13L1392.84 345.13" stroke="hsla(214.10000000000002, 87.9%, 16.8%, 0.03)" stroke-width="1.5"></path><path d="M1392.84 345.13L1263.73 391.82" stroke="hsla(214.10000000000002, 87.9%, 16.8%, 0.03)" stroke-width="1.5"></path><path d="M1392.84 345.13L1398.42 192.37" stroke="hsla(214.10000000000002, 87.9%, 16.8%, 0.03)" stroke-width="1.5"></path><path d="M1392.84 345.13L1544.56 393.59" stroke="hsla(214.10000000000002, 87.9%, 16.8%, 0.03)" stroke-width="1.5"></path><path d="M1392.84 345.13L1395.22 531.37" stroke="hsla(214.10000000000002, 87.9%, 16.8%, 0.03)" stroke-width="1.5"></path><path d="M1392.84 345.13L1247.27 201.46" stroke="hsla(214.10000000000002, 87.9%, 16.8%, 0.03)" stroke-width="1.5"></path><path d="M1437.77 669.13L1437.77 669.13" stroke="hsla(214.10000000000002, 87.9%, 16.8%, 0.03)" stroke-width="1.5"></path><path d="M1437.77 669.13L1395.22 531.37" stroke="hsla(214.10000000000002, 87.9%, 16.8%, 0.03)" stroke-width="1.5"></path><path d="M1437.77 669.13L1601.54 677.08" stroke="hsla(214.10000000000002, 87.9%, 16.8%, 0.03)" stroke-width="1.5"></path><path d="M1437.77 669.13L1253.25 654.35" stroke="hsla(214.10000000000002, 87.9%, 16.8%, 0.03)" stroke-width="1.5"></path><path d="M1437.77 669.13L1292.56 554.15" stroke="hsla(214.10000000000002, 87.9%, 16.8%, 0.03)" stroke-width="1.5"></path><path d="M1437.77 669.13L1600.16 495.16" stroke="hsla(214.10000000000002, 87.9%, 16.8%, 0.03)" stroke-width="1.5"></path><path d="M1437.77 669.13L1544.56 393.59" stroke="hsla(214.10000000000002, 87.9%, 16.8%, 0.03)" stroke-width="1.5"></path><path d="M-81.25 535.4L-81.25 535.4" stroke="hsla(214.10000000000002, 87.9%, 16.8%, 0.03)" stroke-width="1.5"></path><path d="M-81.25 535.4L-50.64 666.99" stroke="hsla(214.10000000000002, 87.9%, 16.8%, 0.03)" stroke-width="1.5"></path><path d="M-81.25 535.4L90.49 666.73" stroke="hsla(214.10000000000002, 87.9%, 16.8%, 0.03)" stroke-width="1.5"></path><path d="M-50.64 666.99L-50.64 666.99" stroke="hsla(214.10000000000002, 87.9%, 16.8%, 0.03)" stroke-width="1.5"></path><path d="M-50.64 666.99L90.49 666.73" stroke="hsla(214.10000000000002, 87.9%, 16.8%, 0.03)" stroke-width="1.5"></path><path d="M-50.64 666.99L188.19 543.98" stroke="hsla(214.10000000000002, 87.9%, 16.8%, 0.03)" stroke-width="1.5"></path><path d="M90.49 666.73L90.49 666.73" stroke="hsla(214.10000000000002, 87.9%, 16.8%, 0.03)" stroke-width="1.5"></path><path d="M90.49 666.73L247.66 685.39" stroke="hsla(214.10000000000002, 87.9%, 16.8%, 0.03)" stroke-width="1.5"></path><path d="M399.38 517.57L399.38 517.57" stroke="hsla(214.10000000000002, 87.9%, 16.8%, 0.03)" stroke-width="1.5"></path><path d="M399.38 517.57L491.27 498.4" stroke="hsla(214.10000000000002, 87.9%, 16.8%, 0.03)" stroke-width="1.5"></path><path d="M399.38 517.57L348.07 653.42" stroke="hsla(214.10000000000002, 87.9%, 16.8%, 0.03)" stroke-width="1.5"></path><path d="M399.38 517.57L523.56 698.5" stroke="hsla(214.10000000000002, 87.9%, 16.8%, 0.03)" stroke-width="1.5"></path><path d="M348.07 653.42L348.07 653.42" stroke="hsla(214.10000000000002, 87.9%, 16.8%, 0.03)" stroke-width="1.5"></path><path d="M348.07 653.42L523.56 698.5" stroke="hsla(214.10000000000002, 87.9%, 16.8%, 0.03)" stroke-width="1.5"></path><path d="M348.07 653.42L491.27 498.4" stroke="hsla(214.10000000000002, 87.9%, 16.8%, 0.03)" stroke-width="1.5"></path><path d="M348.07 653.42L90.49 666.73" stroke="hsla(214.10000000000002, 87.9%, 16.8%, 0.03)" stroke-width="1.5"></path><path d="M491.27 498.4L491.27 498.4" stroke="hsla(214.10000000000002, 87.9%, 16.8%, 0.03)" stroke-width="1.5"></path><path d="M523.56 698.5L523.56 698.5" stroke="hsla(214.10000000000002, 87.9%, 16.8%, 0.03)" stroke-width="1.5"></path><path d="M523.56 698.5L678.25 675.35" stroke="hsla(214.10000000000002, 87.9%, 16.8%, 0.03)" stroke-width="1.5"></path><path d="M523.56 698.5L658.49 550.84" stroke="hsla(214.10000000000002, 87.9%, 16.8%, 0.03)" stroke-width="1.5"></path><path d="M523.56 698.5L491.27 498.4" stroke="hsla(214.10000000000002, 87.9%, 16.8%, 0.03)" stroke-width="1.5"></path><path d="M658.49 550.84L658.49 550.84" stroke="hsla(214.10000000000002, 87.9%, 16.8%, 0.03)" stroke-width="1.5"></path><path d="M658.49 550.84L678.25 675.35" stroke="hsla(214.10000000000002, 87.9%, 16.8%, 0.03)" stroke-width="1.5"></path><path d="M658.49 550.84L820.61 537.8" stroke="hsla(214.10000000000002, 87.9%, 16.8%, 0.03)" stroke-width="1.5"></path><path d="M678.25 675.35L678.25 675.35" stroke="hsla(214.10000000000002, 87.9%, 16.8%, 0.03)" stroke-width="1.5"></path><path d="M678.25 675.35L860.22 692.67" stroke="hsla(214.10000000000002, 87.9%, 16.8%, 0.03)" stroke-width="1.5"></path><path d="M678.25 675.35L820.61 537.8" stroke="hsla(214.10000000000002, 87.9%, 16.8%, 0.03)" stroke-width="1.5"></path><path d="M678.25 675.35L491.27 498.4" stroke="hsla(214.10000000000002, 87.9%, 16.8%, 0.03)" stroke-width="1.5"></path><path d="M810.6 353.17L810.6 353.17" stroke="hsla(214.10000000000002, 87.9%, 16.8%, 0.03)" stroke-width="1.5"></path><path d="M810.6 353.17L820.61 537.8" stroke="hsla(214.10000000000002, 87.9%, 16.8%, 0.03)" stroke-width="1.5"></path><path d="M810.6 353.17L992.31 248.13" stroke="hsla(214.10000000000002, 87.9%, 16.8%, 0.03)" stroke-width="1.5"></path><path d="M810.6 353.17L982.48 494.72" stroke="hsla(214.10000000000002, 87.9%, 16.8%, 0.03)" stroke-width="1.5"></path><path d="M820.61 537.8L820.61 537.8" stroke="hsla(214.10000000000002, 87.9%, 16.8%, 0.03)" stroke-width="1.5"></path><path d="M820.61 537.8L860.22 692.67" stroke="hsla(214.10000000000002, 87.9%, 16.8%, 0.03)" stroke-width="1.5"></path><path d="M860.22 692.67L860.22 692.67" stroke="hsla(214.10000000000002, 87.9%, 16.8%, 0.03)" stroke-width="1.5"></path><path d="M992.31 248.13L992.31 248.13" stroke="hsla(214.10000000000002, 87.9%, 16.8%, 0.03)" stroke-width="1.5"></path><path d="M992.31 248.13L1090.45 399.66" stroke="hsla(214.10000000000002, 87.9%, 16.8%, 0.03)" stroke-width="1.5"></path><path d="M992.31 248.13L1153.06 68.35" stroke="hsla(214.10000000000002, 87.9%, 16.8%, 0.03)" stroke-width="1.5"></path><path d="M982.48 494.72L982.48 494.72" stroke="hsla(214.10000000000002, 87.9%, 16.8%, 0.03)" stroke-width="1.5"></path><path d="M982.48 494.72L1090.45 399.66" stroke="hsla(214.10000000000002, 87.9%, 16.8%, 0.03)" stroke-width="1.5"></path><path d="M982.48 494.72L1116.07 553.25" stroke="hsla(214.10000000000002, 87.9%, 16.8%, 0.03)" stroke-width="1.5"></path><path d="M982.48 494.72L820.61 537.8" stroke="hsla(214.10000000000002, 87.9%, 16.8%, 0.03)" stroke-width="1.5"></path><path d="M1153.06 68.35L1153.06 68.35" stroke="hsla(214.10000000000002, 87.9%, 16.8%, 0.03)" stroke-width="1.5"></path><path d="M1153.06 68.35L1299.27 60.76" stroke="hsla(214.10000000000002, 87.9%, 16.8%, 0.03)" stroke-width="1.5"></path><path d="M1153.06 68.35L1247.27 201.46" stroke="hsla(214.10000000000002, 87.9%, 16.8%, 0.03)" stroke-width="1.5"></path><path d="M1090.45 399.66L1090.45 399.66" stroke="hsla(214.10000000000002, 87.9%, 16.8%, 0.03)" stroke-width="1.5"></path><path d="M1116.07 553.25L1116.07 553.25" stroke="hsla(214.10000000000002, 87.9%, 16.8%, 0.03)" stroke-width="1.5"></path><path d="M1268.59 -96.24L1268.59 -96.24" stroke="hsla(214.10000000000002, 87.9%, 16.8%, 0.03)" stroke-width="1.5"></path><path d="M1268.59 -96.24L1395.97 -66.88" stroke="hsla(214.10000000000002, 87.9%, 16.8%, 0.03)" stroke-width="1.5"></path><path d="M1268.59 -96.24L1299.27 60.76" stroke="hsla(214.10000000000002, 87.9%, 16.8%, 0.03)" stroke-width="1.5"></path><path d="M1268.59 -96.24L1153.06 68.35" stroke="hsla(214.10000000000002, 87.9%, 16.8%, 0.03)" stroke-width="1.5"></path><path d="M1268.59 -96.24L1247.27 201.46" stroke="hsla(214.10000000000002, 87.9%, 16.8%, 0.03)" stroke-width="1.5"></path><path d="M1268.59 -96.24L1398.42 192.37" stroke="hsla(214.10000000000002, 87.9%, 16.8%, 0.03)" stroke-width="1.5"></path><path d="M1299.27 60.76L1299.27 60.76" stroke="hsla(214.10000000000002, 87.9%, 16.8%, 0.03)" stroke-width="1.5"></path><path d="M1299.27 60.76L1247.27 201.46" stroke="hsla(214.10000000000002, 87.9%, 16.8%, 0.03)" stroke-width="1.5"></path><path d="M1299.27 60.76L1395.97 -66.88" stroke="hsla(214.10000000000002, 87.9%, 16.8%, 0.03)" stroke-width="1.5"></path><path d="M1247.27 201.46L1247.27 201.46" stroke="hsla(214.10000000000002, 87.9%, 16.8%, 0.03)" stroke-width="1.5"></path><path d="M1247.27 201.46L1398.42 192.37" stroke="hsla(214.10000000000002, 87.9%, 16.8%, 0.03)" stroke-width="1.5"></path><path d="M1247.27 201.46L1263.73 391.82" stroke="hsla(214.10000000000002, 87.9%, 16.8%, 0.03)" stroke-width="1.5"></path><path d="M1263.73 391.82L1263.73 391.82" stroke="hsla(214.10000000000002, 87.9%, 16.8%, 0.03)" stroke-width="1.5"></path><path d="M1263.73 391.82L1292.56 554.15" stroke="hsla(214.10000000000002, 87.9%, 16.8%, 0.03)" stroke-width="1.5"></path><path d="M1292.56 554.15L1292.56 554.15" stroke="hsla(214.10000000000002, 87.9%, 16.8%, 0.03)" stroke-width="1.5"></path><path d="M1292.56 554.15L1395.22 531.37" stroke="hsla(214.10000000000002, 87.9%, 16.8%, 0.03)" stroke-width="1.5"></path><path d="M1292.56 554.15L1253.25 654.35" stroke="hsla(214.10000000000002, 87.9%, 16.8%, 0.03)" stroke-width="1.5"></path><path d="M1292.56 554.15L1116.07 553.25" stroke="hsla(214.10000000000002, 87.9%, 16.8%, 0.03)" stroke-width="1.5"></path><path d="M1253.25 654.35L1253.25 654.35" stroke="hsla(214.10000000000002, 87.9%, 16.8%, 0.03)" stroke-width="1.5"></path><path d="M1253.25 654.35L1116.07 553.25" stroke="hsla(214.10000000000002, 87.9%, 16.8%, 0.03)" stroke-width="1.5"></path><path d="M1253.25 654.35L1395.22 531.37" stroke="hsla(214.10000000000002, 87.9%, 16.8%, 0.03)" stroke-width="1.5"></path><path d="M1395.97 -66.88L1395.97 -66.88" stroke="hsla(214.10000000000002, 87.9%, 16.8%, 0.03)" stroke-width="1.5"></path><path d="M1395.97 -66.88L1398.42 192.37" stroke="hsla(214.10000000000002, 87.9%, 16.8%, 0.03)" stroke-width="1.5"></path><path d="M1398.42 192.37L1398.42 192.37" stroke="hsla(214.10000000000002, 87.9%, 16.8%, 0.03)" stroke-width="1.5"></path><path d="M1398.42 192.37L1299.27 60.76" stroke="hsla(214.10000000000002, 87.9%, 16.8%, 0.03)" stroke-width="1.5"></path><path d="M1398.42 192.37L1568.52 216.44" stroke="hsla(214.10000000000002, 87.9%, 16.8%, 0.03)" stroke-width="1.5"></path><path d="M1398.42 192.37L1610.45 81.54" stroke="hsla(214.10000000000002, 87.9%, 16.8%, 0.03)" stroke-width="1.5"></path><path d="M1398.42 192.37L1263.73 391.82" stroke="hsla(214.10000000000002, 87.9%, 16.8%, 0.03)" stroke-width="1.5"></path><path d="M1395.22 531.37L1395.22 531.37" stroke="hsla(214.10000000000002, 87.9%, 16.8%, 0.03)" stroke-width="1.5"></path><path d="M1395.22 531.37L1263.73 391.82" stroke="hsla(214.10000000000002, 87.9%, 16.8%, 0.03)" stroke-width="1.5"></path><path d="M1610.45 81.54L1610.45 81.54" stroke="hsla(214.10000000000002, 87.9%, 16.8%, 0.03)" stroke-width="1.5"></path><path d="M1610.45 81.54L1568.52 216.44" stroke="hsla(214.10000000000002, 87.9%, 16.8%, 0.03)" stroke-width="1.5"></path><path d="M1610.45 81.54L1395.97 -66.88" stroke="hsla(214.10000000000002, 87.9%, 16.8%, 0.03)" stroke-width="1.5"></path><path d="M1610.45 81.54L1299.27 60.76" stroke="hsla(214.10000000000002, 87.9%, 16.8%, 0.03)" stroke-width="1.5"></path><path d="M1610.45 81.54L1544.56 393.59" stroke="hsla(214.10000000000002, 87.9%, 16.8%, 0.03)" stroke-width="1.5"></path><path d="M1610.45 81.54L1392.84 345.13" stroke="hsla(214.10000000000002, 87.9%, 16.8%, 0.03)" stroke-width="1.5"></path><path d="M1568.52 216.44L1568.52 216.44" stroke="hsla(214.10000000000002, 87.9%, 16.8%, 0.03)" stroke-width="1.5"></path><path d="M1568.52 216.44L1544.56 393.59" stroke="hsla(214.10000000000002, 87.9%, 16.8%, 0.03)" stroke-width="1.5"></path><path d="M1568.52 216.44L1392.84 345.13" stroke="hsla(214.10000000000002, 87.9%, 16.8%, 0.03)" stroke-width="1.5"></path><path d="M1568.52 216.44L1600.16 495.16" stroke="hsla(214.10000000000002, 87.9%, 16.8%, 0.03)" stroke-width="1.5"></path><path d="M1568.52 216.44L1299.27 60.76" stroke="hsla(214.10000000000002, 87.9%, 16.8%, 0.03)" stroke-width="1.5"></path><path d="M1544.56 393.59L1544.56 393.59" stroke="hsla(214.10000000000002, 87.9%, 16.8%, 0.03)" stroke-width="1.5"></path><path d="M1544.56 393.59L1600.16 495.16" stroke="hsla(214.10000000000002, 87.9%, 16.8%, 0.03)" stroke-width="1.5"></path><path d="M1544.56 393.59L1395.22 531.37" stroke="hsla(214.10000000000002, 87.9%, 16.8%, 0.03)" stroke-width="1.5"></path><path d="M1544.56 393.59L1398.42 192.37" stroke="hsla(214.10000000000002, 87.9%, 16.8%, 0.03)" stroke-width="1.5"></path><path d="M1600.16 495.16L1600.16 495.16" stroke="hsla(214.10000000000002, 87.9%, 16.8%, 0.03)" stroke-width="1.5"></path><path d="M1600.16 495.16L1601.54 677.08" stroke="hsla(214.10000000000002, 87.9%, 16.8%, 0.03)" stroke-width="1.5"></path><path d="M1600.16 495.16L1395.22 531.37" stroke="hsla(214.10000000000002, 87.9%, 16.8%, 0.03)" stroke-width="1.5"></path><path d="M1600.16 495.16L1392.84 345.13" stroke="hsla(214.10000000000002, 87.9%, 16.8%, 0.03)" stroke-width="1.5"></path><path d="M1601.54 677.08L1601.54 677.08" stroke="hsla(214.10000000000002, 87.9%, 16.8%, 0.03)" stroke-width="1.5"></path><circle r="25" cx="188.19" cy="543.98" fill="url(&quot;#SvgjsRadialGradient1009&quot;)"></circle><circle r="25" cx="247.66" cy="685.39" fill="url(&quot;#SvgjsRadialGradient1009&quot;)"></circle><circle r="25" cx="970.47" cy="380.42" fill="url(&quot;#SvgjsRadialGradient1009&quot;)"></circle><circle r="25" cx="1010.24" cy="654.49" fill="url(&quot;#SvgjsRadialGradient1009&quot;)"></circle><circle r="25" cx="1143.25" cy="228.82" fill="url(&quot;#SvgjsRadialGradient1009&quot;)"></circle><circle r="25" cx="1392.84" cy="345.13" fill="url(&quot;#SvgjsRadialGradient1009&quot;)"></circle><circle r="25" cx="1437.77" cy="669.13" fill="url(&quot;#SvgjsRadialGradient1009&quot;)"></circle><circle r="5" cx="-81.25" cy="535.4" fill="rgba(251, 252, 252, 0.515)"></circle><circle r="5" cx="-50.64" cy="666.99" fill="rgba(251, 252, 252, 0.515)"></circle><circle r="5" cx="90.49" cy="666.73" fill="rgba(251, 252, 252, 0.515)"></circle><circle r="5" cx="399.38" cy="517.57" fill="rgba(251, 252, 252, 0.515)"></circle><circle r="5" cx="348.07" cy="653.42" fill="rgba(251, 252, 252, 0.515)"></circle><circle r="5" cx="491.27" cy="498.4" fill="rgba(251, 252, 252, 0.515)"></circle><circle r="5" cx="523.56" cy="698.5" fill="rgba(251, 252, 252, 0.515)"></circle><circle r="5" cx="658.49" cy="550.84" fill="rgba(251, 252, 252, 0.515)"></circle><circle r="5" cx="678.25" cy="675.35" fill="rgba(251, 252, 252, 0.515)"></circle><circle r="5" cx="810.6" cy="353.17" fill="rgba(251, 252, 252, 0.515)"></circle><circle r="5" cx="820.61" cy="537.8" fill="rgba(251, 252, 252, 0.515)"></circle><circle r="5" cx="860.22" cy="692.67" fill="rgba(251, 252, 252, 0.515)"></circle><circle r="5" cx="992.31" cy="248.13" fill="rgba(251, 252, 252, 0.515)"></circle><circle r="5" cx="982.48" cy="494.72" fill="rgba(251, 252, 252, 0.515)"></circle><circle r="5" cx="1153.06" cy="68.35" fill="rgba(251, 252, 252, 0.515)"></circle><circle r="5" cx="1090.45" cy="399.66" fill="rgba(251, 252, 252, 0.515)"></circle><circle r="5" cx="1116.07" cy="553.25" fill="rgba(251, 252, 252, 0.515)"></circle><circle r="5" cx="1268.59" cy="-96.24" fill="rgba(251, 252, 252, 0.515)"></circle><circle r="5" cx="1299.27" cy="60.76" fill="rgba(251, 252, 252, 0.515)"></circle><circle r="5" cx="1247.27" cy="201.46" fill="rgba(251, 252, 252, 0.515)"></circle><circle r="5" cx="1263.73" cy="391.82" fill="rgba(251, 252, 252, 0.515)"></circle><circle r="5" cx="1292.56" cy="554.15" fill="rgba(251, 252, 252, 0.515)"></circle><circle r="5" cx="1253.25" cy="654.35" fill="rgba(251, 252, 252, 0.515)"></circle><circle r="5" cx="1395.97" cy="-66.88" fill="rgba(251, 252, 252, 0.515)"></circle><circle r="5" cx="1398.42" cy="192.37" fill="rgba(251, 252, 252, 0.515)"></circle><circle r="5" cx="1395.22" cy="531.37" fill="rgba(251, 252, 252, 0.515)"></circle><circle r="5" cx="1610.45" cy="81.54" fill="rgba(251, 252, 252, 0.515)"></circle><circle r="5" cx="1568.52" cy="216.44" fill="rgba(251, 252, 252, 0.515)"></circle><circle r="5" cx="1544.56" cy="393.59" fill="rgba(251, 252, 252, 0.515)"></circle><circle r="5" cx="1600.16" cy="495.16" fill="rgba(251, 252, 252, 0.515)"></circle><circle r="5" cx="1601.54" cy="677.08" fill="rgba(251, 252, 252, 0.515)"></circle></g><defs><mask id="SvgjsMask1008"><rect width="1440" height="560" fill="#ffffff"></rect></mask><radialGradient id="SvgjsRadialGradient1009"><stop stop-color="#ffffff" offset="0.1"></stop><stop stop-color="rgba(4, 29, 62, 0.03)" offset="0.2"></stop><stop stop-color="rgba(4, 29, 62, 0)" offset="1"></stop></radialGradient></defs></svg>