<svg xmlns="http://www.w3.org/2000/svg" xmlns:xlink="http://www.w3.org/1999/xlink" xmlns:svgjs="http://svgjs.com/svgjs" version="1.1" width="512" height="512" x="0" y="0" viewBox="0 0 512 512" style="enable-background:new 0 0 512 512" xml:space="preserve" class=""><g><g xmlns="http://www.w3.org/2000/svg"><path d="m504.5 432.871h-16.548v-257.032c0-8.556-6.96-15.516-15.516-15.516h-48.097c-8.556 0-15.516 6.96-15.516 15.516v64.127c0 4.142 3.358 7.5 7.5 7.5s7.5-3.358 7.5-7.5v-16.547h49.129v209.452h-49.129v-160.839c0-4.142-3.358-7.5-7.5-7.5s-7.5 3.358-7.5 7.5v160.838h-49.129v-112.741c0-8.556-6.96-15.516-15.516-15.516h-48.097c-8.556 0-15.516 6.96-15.516 15.516v112.742h-49.129v-160.839c0-8.556-6.96-15.516-15.516-15.516h-48.097c-8.556 0-15.516 6.96-15.516 15.516v64.127c0 4.142 3.358 7.5 7.5 7.5s7.5-3.358 7.5-7.5v-16.547h49.129v113.258h-49.129v-64.647c0-4.142-3.358-7.5-7.5-7.5s-7.5 3.358-7.5 7.5v64.647h-49.129v-56.629c0-8.556-6.96-15.516-15.516-15.516h-48.098c-8.556 0-15.516 6.96-15.516 15.516v56.629h-16.548c-4.142 0-7.5 3.358-7.5 7.5s3.358 7.5 7.5 7.5h497c4.142 0 7.5-3.358 7.5-7.5s-3.358-7.499-7.5-7.499zm-80.677-224.452v-32.581c0-.285.231-.516.516-.516h48.097c.285 0 .516.231.516.516v32.581zm-256.516 96.193v-32.581c0-.285.231-.516.516-.516h48.097c.285 0 .516.231.516.516v32.581zm128.774 15h48.097c.285 0 .516.231.516.516v16.548h-49.129v-16.548c-.001-.284.231-.516.516-.516zm-.517 32.065h49.129v81.194h-49.129zm-256 24.048h48.097c.285 0 .516.231.516.516v16.549h-49.129v-16.549c0-.284.232-.516.516-.516zm-.516 32.065h49.129v25.081h-49.129z" fill="#001D3D" data-original="#000000" style=""/><path d="m15.516 343.661c1.919 0 3.839-.732 5.303-2.197l157.003-157.002c1.611-1.612 3.754-2.499 6.033-2.499s4.421.887 6.033 2.499l65.504 65.504c4.444 4.445 10.354 6.892 16.64 6.892s12.195-2.447 16.64-6.892l157.125-157.124-4.834 33.839c-.585 4.101 2.264 7.899 6.364 8.485.36.051.717.076 1.07.076 3.672 0 6.881-2.7 7.416-6.44l8.016-56.113c.333-2.337-.452-4.695-2.122-6.364-1.669-1.669-4.025-2.453-6.364-2.122l-56.113 8.017c-4.101.586-6.95 4.385-6.364 8.485.586 4.101 4.388 6.948 8.485 6.364l33.839-4.834-157.125 157.125c-1.611 1.611-3.754 2.499-6.033 2.499s-4.422-.887-6.033-2.499l-65.504-65.504c-4.445-4.445-10.354-6.893-16.64-6.893s-12.195 2.448-16.64 6.893l-157.002 157.002c-2.929 2.929-2.929 7.678 0 10.606 1.464 1.465 3.384 2.197 5.303 2.197z" fill="#001D3D" data-original="#000000" style=""/></g></g></svg>
