<svg xmlns="http://www.w3.org/2000/svg" version="1.1" xmlns:xlink="http://www.w3.org/1999/xlink" xmlns:svgjs="http://svgjs.dev/svgjs" width="1440" height="720" preserveAspectRatio="none" viewBox="0 0 1440 720"><g mask="url(&quot;#SvgjsMask1086&quot;)" fill="none"><path d="M-41.04 520.04L-41.04 520.04" stroke="rgba(4, 29, 62, 0.03)" stroke-width="1.5"></path><path d="M-41.04 520.04L38.2 547.71" stroke="rgba(4, 29, 62, 0.03)" stroke-width="1.5"></path><path d="M-41.04 520.04L-45.92 672.98" stroke="rgba(4, 29, 62, 0.03)" stroke-width="1.5"></path><path d="M-41.04 520.04L86.3 708.25" stroke="rgba(4, 29, 62, 0.03)" stroke-width="1.5"></path><path d="M-41.04 520.04L-81.55 793.27" stroke="rgba(4, 29, 62, 0.03)" stroke-width="1.5"></path><path d="M-41.04 520.04L242.95 558.09" stroke="rgba(4, 29, 62, 0.03)" stroke-width="1.5"></path><path d="M-45.92 672.98L-45.92 672.98" stroke="rgba(4, 29, 62, 0.03)" stroke-width="1.5"></path><path d="M-45.92 672.98L-81.55 793.27" stroke="rgba(4, 29, 62, 0.03)" stroke-width="1.5"></path><path d="M-45.92 672.98L86.3 708.25" stroke="rgba(4, 29, 62, 0.03)" stroke-width="1.5"></path><path d="M-45.92 672.98L38.2 547.71" stroke="rgba(4, 29, 62, 0.03)" stroke-width="1.5"></path><path d="M-45.92 672.98L46.67 839.4" stroke="rgba(4, 29, 62, 0.03)" stroke-width="1.5"></path><path d="M-45.92 672.98L242.7 694.42" stroke="rgba(4, 29, 62, 0.03)" stroke-width="1.5"></path><path d="M-81.55 793.27L-81.55 793.27" stroke="rgba(4, 29, 62, 0.03)" stroke-width="1.5"></path><path d="M-81.55 793.27L46.67 839.4" stroke="rgba(4, 29, 62, 0.03)" stroke-width="1.5"></path><path d="M-81.55 793.27L86.3 708.25" stroke="rgba(4, 29, 62, 0.03)" stroke-width="1.5"></path><path d="M-81.55 793.27L38.2 547.71" stroke="rgba(4, 29, 62, 0.03)" stroke-width="1.5"></path><path d="M38.2 547.71L38.2 547.71" stroke="rgba(4, 29, 62, 0.03)" stroke-width="1.5"></path><path d="M86.3 708.25L86.3 708.25" stroke="rgba(4, 29, 62, 0.03)" stroke-width="1.5"></path><path d="M86.3 708.25L46.67 839.4" stroke="rgba(4, 29, 62, 0.03)" stroke-width="1.5"></path><path d="M86.3 708.25L242.7 694.42" stroke="rgba(4, 29, 62, 0.03)" stroke-width="1.5"></path><path d="M86.3 708.25L38.2 547.71" stroke="rgba(4, 29, 62, 0.03)" stroke-width="1.5"></path><path d="M46.67 839.4L46.67 839.4" stroke="rgba(4, 29, 62, 0.03)" stroke-width="1.5"></path><path d="M242.95 558.09L242.95 558.09" stroke="rgba(4, 29, 62, 0.03)" stroke-width="1.5"></path><path d="M242.95 558.09L242.7 694.42" stroke="rgba(4, 29, 62, 0.03)" stroke-width="1.5"></path><path d="M242.7 694.42L242.7 694.42" stroke="rgba(4, 29, 62, 0.03)" stroke-width="1.5"></path><path d="M242.7 694.42L341.16 710.4" stroke="rgba(4, 29, 62, 0.03)" stroke-width="1.5"></path><path d="M242.7 694.42L242.49 818.43" stroke="rgba(4, 29, 62, 0.03)" stroke-width="1.5"></path><path d="M242.49 818.43L242.49 818.43" stroke="rgba(4, 29, 62, 0.03)" stroke-width="1.5"></path><path d="M242.49 818.43L341.16 710.4" stroke="rgba(4, 29, 62, 0.03)" stroke-width="1.5"></path><path d="M242.49 818.43L86.3 708.25" stroke="rgba(4, 29, 62, 0.03)" stroke-width="1.5"></path><path d="M242.49 818.43L46.67 839.4" stroke="rgba(4, 29, 62, 0.03)" stroke-width="1.5"></path><path d="M242.49 818.43L242.95 558.09" stroke="rgba(4, 29, 62, 0.03)" stroke-width="1.5"></path><path d="M395.82 390.65L395.82 390.65" stroke="rgba(4, 29, 62, 0.03)" stroke-width="1.5"></path><path d="M395.82 390.65L397.44 508.3" stroke="rgba(4, 29, 62, 0.03)" stroke-width="1.5"></path><path d="M395.82 390.65L526.88 352.71" stroke="rgba(4, 29, 62, 0.03)" stroke-width="1.5"></path><path d="M395.82 390.65L242.95 558.09" stroke="rgba(4, 29, 62, 0.03)" stroke-width="1.5"></path><path d="M397.44 508.3L397.44 508.3" stroke="rgba(4, 29, 62, 0.03)" stroke-width="1.5"></path><path d="M397.44 508.3L242.95 558.09" stroke="rgba(4, 29, 62, 0.03)" stroke-width="1.5"></path><path d="M397.44 508.3L526.88 352.71" stroke="rgba(4, 29, 62, 0.03)" stroke-width="1.5"></path><path d="M341.16 710.4L341.16 710.4" stroke="rgba(4, 29, 62, 0.03)" stroke-width="1.5"></path><path d="M526.88 352.71L526.88 352.71" stroke="rgba(4, 29, 62, 0.03)" stroke-width="1.5"></path><path d="M526.88 352.71L700.73 399.23" stroke="rgba(4, 29, 62, 0.03)" stroke-width="1.5"></path><path d="M526.88 352.71L641.68 498.04" stroke="rgba(4, 29, 62, 0.03)" stroke-width="1.5"></path><path d="M552.47 677.99L552.47 677.99" stroke="rgba(4, 29, 62, 0.03)" stroke-width="1.5"></path><path d="M552.47 677.99L712.29 660.05" stroke="rgba(4, 29, 62, 0.03)" stroke-width="1.5"></path><path d="M552.47 677.99L500.4 859.24" stroke="rgba(4, 29, 62, 0.03)" stroke-width="1.5"></path><path d="M552.47 677.99L641.68 498.04" stroke="rgba(4, 29, 62, 0.03)" stroke-width="1.5"></path><path d="M552.47 677.99L341.16 710.4" stroke="rgba(4, 29, 62, 0.03)" stroke-width="1.5"></path><path d="M552.47 677.99L679.28 861.16" stroke="rgba(4, 29, 62, 0.03)" stroke-width="1.5"></path><path d="M552.47 677.99L397.44 508.3" stroke="rgba(4, 29, 62, 0.03)" stroke-width="1.5"></path><path d="M500.4 859.24L500.4 859.24" stroke="rgba(4, 29, 62, 0.03)" stroke-width="1.5"></path><path d="M500.4 859.24L679.28 861.16" stroke="rgba(4, 29, 62, 0.03)" stroke-width="1.5"></path><path d="M500.4 859.24L341.16 710.4" stroke="rgba(4, 29, 62, 0.03)" stroke-width="1.5"></path><path d="M500.4 859.24L242.49 818.43" stroke="rgba(4, 29, 62, 0.03)" stroke-width="1.5"></path><path d="M500.4 859.24L712.29 660.05" stroke="rgba(4, 29, 62, 0.03)" stroke-width="1.5"></path><path d="M700.73 399.23L700.73 399.23" stroke="rgba(4, 29, 62, 0.03)" stroke-width="1.5"></path><path d="M700.73 399.23L641.68 498.04" stroke="rgba(4, 29, 62, 0.03)" stroke-width="1.5"></path><path d="M700.73 399.23L841.22 398.2" stroke="rgba(4, 29, 62, 0.03)" stroke-width="1.5"></path><path d="M700.73 399.23L824.26 526.14" stroke="rgba(4, 29, 62, 0.03)" stroke-width="1.5"></path><path d="M641.68 498.04L641.68 498.04" stroke="rgba(4, 29, 62, 0.03)" stroke-width="1.5"></path><path d="M641.68 498.04L712.29 660.05" stroke="rgba(4, 29, 62, 0.03)" stroke-width="1.5"></path><path d="M641.68 498.04L824.26 526.14" stroke="rgba(4, 29, 62, 0.03)" stroke-width="1.5"></path><path d="M712.29 660.05L712.29 660.05" stroke="rgba(4, 29, 62, 0.03)" stroke-width="1.5"></path><path d="M712.29 660.05L796.95 655.65" stroke="rgba(4, 29, 62, 0.03)" stroke-width="1.5"></path><path d="M712.29 660.05L824.26 526.14" stroke="rgba(4, 29, 62, 0.03)" stroke-width="1.5"></path><path d="M712.29 660.05L679.28 861.16" stroke="rgba(4, 29, 62, 0.03)" stroke-width="1.5"></path><path d="M712.29 660.05L700.73 399.23" stroke="rgba(4, 29, 62, 0.03)" stroke-width="1.5"></path><path d="M679.28 861.16L679.28 861.16" stroke="rgba(4, 29, 62, 0.03)" stroke-width="1.5"></path><path d="M679.28 861.16L796.95 655.65" stroke="rgba(4, 29, 62, 0.03)" stroke-width="1.5"></path><path d="M679.28 861.16L980.65 840.47" stroke="rgba(4, 29, 62, 0.03)" stroke-width="1.5"></path><path d="M830.96 216.07L830.96 216.07" stroke="rgba(4, 29, 62, 0.03)" stroke-width="1.5"></path><path d="M830.96 216.07L946.24 187.6" stroke="rgba(4, 29, 62, 0.03)" stroke-width="1.5"></path><path d="M830.96 216.07L841.22 398.2" stroke="rgba(4, 29, 62, 0.03)" stroke-width="1.5"></path><path d="M830.96 216.07L961.62 63.21" stroke="rgba(4, 29, 62, 0.03)" stroke-width="1.5"></path><path d="M830.96 216.07L971.25 367.06" stroke="rgba(4, 29, 62, 0.03)" stroke-width="1.5"></path><path d="M830.96 216.07L700.73 399.23" stroke="rgba(4, 29, 62, 0.03)" stroke-width="1.5"></path><path d="M841.22 398.2L841.22 398.2" stroke="rgba(4, 29, 62, 0.03)" stroke-width="1.5"></path><path d="M841.22 398.2L824.26 526.14" stroke="rgba(4, 29, 62, 0.03)" stroke-width="1.5"></path><path d="M841.22 398.2L971.25 367.06" stroke="rgba(4, 29, 62, 0.03)" stroke-width="1.5"></path><path d="M841.22 398.2L967.02 490.81" stroke="rgba(4, 29, 62, 0.03)" stroke-width="1.5"></path><path d="M824.26 526.14L824.26 526.14" stroke="rgba(4, 29, 62, 0.03)" stroke-width="1.5"></path><path d="M824.26 526.14L796.95 655.65" stroke="rgba(4, 29, 62, 0.03)" stroke-width="1.5"></path><path d="M824.26 526.14L967.02 490.81" stroke="rgba(4, 29, 62, 0.03)" stroke-width="1.5"></path><path d="M796.95 655.65L796.95 655.65" stroke="rgba(4, 29, 62, 0.03)" stroke-width="1.5"></path><path d="M796.95 655.65L992.24 660.21" stroke="rgba(4, 29, 62, 0.03)" stroke-width="1.5"></path><path d="M796.95 655.65L641.68 498.04" stroke="rgba(4, 29, 62, 0.03)" stroke-width="1.5"></path><path d="M949.3 -57.16L949.3 -57.16" stroke="rgba(4, 29, 62, 0.03)" stroke-width="1.5"></path><path d="M949.3 -57.16L961.62 63.21" stroke="rgba(4, 29, 62, 0.03)" stroke-width="1.5"></path><path d="M949.3 -57.16L1100.18 -109.95" stroke="rgba(4, 29, 62, 0.03)" stroke-width="1.5"></path><path d="M949.3 -57.16L946.24 187.6" stroke="rgba(4, 29, 62, 0.03)" stroke-width="1.5"></path><path d="M949.3 -57.16L830.96 216.07" stroke="rgba(4, 29, 62, 0.03)" stroke-width="1.5"></path><path d="M949.3 -57.16L1126.9 211.22" stroke="rgba(4, 29, 62, 0.03)" stroke-width="1.5"></path><path d="M949.3 -57.16L1244.7 105.93" stroke="rgba(4, 29, 62, 0.03)" stroke-width="1.5"></path><path d="M961.62 63.21L961.62 63.21" stroke="rgba(4, 29, 62, 0.03)" stroke-width="1.5"></path><path d="M961.62 63.21L946.24 187.6" stroke="rgba(4, 29, 62, 0.03)" stroke-width="1.5"></path><path d="M961.62 63.21L1100.18 -109.95" stroke="rgba(4, 29, 62, 0.03)" stroke-width="1.5"></path><path d="M961.62 63.21L1126.9 211.22" stroke="rgba(4, 29, 62, 0.03)" stroke-width="1.5"></path><path d="M961.62 63.21L1244.7 105.93" stroke="rgba(4, 29, 62, 0.03)" stroke-width="1.5"></path><path d="M946.24 187.6L946.24 187.6" stroke="rgba(4, 29, 62, 0.03)" stroke-width="1.5"></path><path d="M971.25 367.06L971.25 367.06" stroke="rgba(4, 29, 62, 0.03)" stroke-width="1.5"></path><path d="M971.25 367.06L967.02 490.81" stroke="rgba(4, 29, 62, 0.03)" stroke-width="1.5"></path><path d="M967.02 490.81L967.02 490.81" stroke="rgba(4, 29, 62, 0.03)" stroke-width="1.5"></path><path d="M967.02 490.81L1094.8 493.04" stroke="rgba(4, 29, 62, 0.03)" stroke-width="1.5"></path><path d="M992.24 660.21L992.24 660.21" stroke="rgba(4, 29, 62, 0.03)" stroke-width="1.5"></path><path d="M992.24 660.21L1161.18 656.47" stroke="rgba(4, 29, 62, 0.03)" stroke-width="1.5"></path><path d="M992.24 660.21L967.02 490.81" stroke="rgba(4, 29, 62, 0.03)" stroke-width="1.5"></path><path d="M992.24 660.21L980.65 840.47" stroke="rgba(4, 29, 62, 0.03)" stroke-width="1.5"></path><path d="M980.65 840.47L980.65 840.47" stroke="rgba(4, 29, 62, 0.03)" stroke-width="1.5"></path><path d="M980.65 840.47L1101.2 831.84" stroke="rgba(4, 29, 62, 0.03)" stroke-width="1.5"></path><path d="M980.65 840.47L1161.18 656.47" stroke="rgba(4, 29, 62, 0.03)" stroke-width="1.5"></path><path d="M980.65 840.47L796.95 655.65" stroke="rgba(4, 29, 62, 0.03)" stroke-width="1.5"></path><path d="M980.65 840.47L1274.51 805.87" stroke="rgba(4, 29, 62, 0.03)" stroke-width="1.5"></path><path d="M1100.18 -109.95L1100.18 -109.95" stroke="rgba(4, 29, 62, 0.03)" stroke-width="1.5"></path><path d="M1100.18 -109.95L1287.06 -68.87" stroke="rgba(4, 29, 62, 0.03)" stroke-width="1.5"></path><path d="M1100.18 -109.95L1244.7 105.93" stroke="rgba(4, 29, 62, 0.03)" stroke-width="1.5"></path><path d="M1100.18 -109.95L1126.9 211.22" stroke="rgba(4, 29, 62, 0.03)" stroke-width="1.5"></path><path d="M1126.9 211.22L1126.9 211.22" stroke="rgba(4, 29, 62, 0.03)" stroke-width="1.5"></path><path d="M1126.9 211.22L1244.7 105.93" stroke="rgba(4, 29, 62, 0.03)" stroke-width="1.5"></path><path d="M1126.9 211.22L946.24 187.6" stroke="rgba(4, 29, 62, 0.03)" stroke-width="1.5"></path><path d="M1126.9 211.22L1302.94 260.01" stroke="rgba(4, 29, 62, 0.03)" stroke-width="1.5"></path><path d="M1141.65 395.11L1141.65 395.11" stroke="rgba(4, 29, 62, 0.03)" stroke-width="1.5"></path><path d="M1141.65 395.11L1094.8 493.04" stroke="rgba(4, 29, 62, 0.03)" stroke-width="1.5"></path><path d="M1141.65 395.11L1281.28 401.09" stroke="rgba(4, 29, 62, 0.03)" stroke-width="1.5"></path><path d="M1141.65 395.11L971.25 367.06" stroke="rgba(4, 29, 62, 0.03)" stroke-width="1.5"></path><path d="M1141.65 395.11L1126.9 211.22" stroke="rgba(4, 29, 62, 0.03)" stroke-width="1.5"></path><path d="M1141.65 395.11L1282.82 516.39" stroke="rgba(4, 29, 62, 0.03)" stroke-width="1.5"></path><path d="M1141.65 395.11L967.02 490.81" stroke="rgba(4, 29, 62, 0.03)" stroke-width="1.5"></path><path d="M1094.8 493.04L1094.8 493.04" stroke="rgba(4, 29, 62, 0.03)" stroke-width="1.5"></path><path d="M1094.8 493.04L1161.18 656.47" stroke="rgba(4, 29, 62, 0.03)" stroke-width="1.5"></path><path d="M1094.8 493.04L971.25 367.06" stroke="rgba(4, 29, 62, 0.03)" stroke-width="1.5"></path><path d="M1161.18 656.47L1161.18 656.47" stroke="rgba(4, 29, 62, 0.03)" stroke-width="1.5"></path><path d="M1161.18 656.47L1309.18 684.27" stroke="rgba(4, 29, 62, 0.03)" stroke-width="1.5"></path><path d="M1161.18 656.47L1101.2 831.84" stroke="rgba(4, 29, 62, 0.03)" stroke-width="1.5"></path><path d="M1161.18 656.47L1282.82 516.39" stroke="rgba(4, 29, 62, 0.03)" stroke-width="1.5"></path><path d="M1101.2 831.84L1101.2 831.84" stroke="rgba(4, 29, 62, 0.03)" stroke-width="1.5"></path><path d="M1101.2 831.84L1274.51 805.87" stroke="rgba(4, 29, 62, 0.03)" stroke-width="1.5"></path><path d="M1287.06 -68.87L1287.06 -68.87" stroke="rgba(4, 29, 62, 0.03)" stroke-width="1.5"></path><path d="M1287.06 -68.87L1430.36 -88.63" stroke="rgba(4, 29, 62, 0.03)" stroke-width="1.5"></path><path d="M1287.06 -68.87L1244.7 105.93" stroke="rgba(4, 29, 62, 0.03)" stroke-width="1.5"></path><path d="M1287.06 -68.87L1449.8 48.33" stroke="rgba(4, 29, 62, 0.03)" stroke-width="1.5"></path><path d="M1244.7 105.93L1244.7 105.93" stroke="rgba(4, 29, 62, 0.03)" stroke-width="1.5"></path><path d="M1244.7 105.93L1302.94 260.01" stroke="rgba(4, 29, 62, 0.03)" stroke-width="1.5"></path><path d="M1244.7 105.93L1396.11 194.94" stroke="rgba(4, 29, 62, 0.03)" stroke-width="1.5"></path><path d="M1302.94 260.01L1302.94 260.01" stroke="rgba(4, 29, 62, 0.03)" stroke-width="1.5"></path><path d="M1302.94 260.01L1396.11 194.94" stroke="rgba(4, 29, 62, 0.03)" stroke-width="1.5"></path><path d="M1302.94 260.01L1281.28 401.09" stroke="rgba(4, 29, 62, 0.03)" stroke-width="1.5"></path><path d="M1281.28 401.09L1281.28 401.09" stroke="rgba(4, 29, 62, 0.03)" stroke-width="1.5"></path><path d="M1281.28 401.09L1282.82 516.39" stroke="rgba(4, 29, 62, 0.03)" stroke-width="1.5"></path><path d="M1281.28 401.09L1452.72 358.58" stroke="rgba(4, 29, 62, 0.03)" stroke-width="1.5"></path><path d="M1281.28 401.09L1430.07 535.85" stroke="rgba(4, 29, 62, 0.03)" stroke-width="1.5"></path><path d="M1282.82 516.39L1282.82 516.39" stroke="rgba(4, 29, 62, 0.03)" stroke-width="1.5"></path><path d="M1282.82 516.39L1430.07 535.85" stroke="rgba(4, 29, 62, 0.03)" stroke-width="1.5"></path><path d="M1282.82 516.39L1309.18 684.27" stroke="rgba(4, 29, 62, 0.03)" stroke-width="1.5"></path><path d="M1309.18 684.27L1309.18 684.27" stroke="rgba(4, 29, 62, 0.03)" stroke-width="1.5"></path><path d="M1309.18 684.27L1398.92 687.84" stroke="rgba(4, 29, 62, 0.03)" stroke-width="1.5"></path><path d="M1309.18 684.27L1274.51 805.87" stroke="rgba(4, 29, 62, 0.03)" stroke-width="1.5"></path><path d="M1309.18 684.27L1396.08 828.25" stroke="rgba(4, 29, 62, 0.03)" stroke-width="1.5"></path><path d="M1274.51 805.87L1274.51 805.87" stroke="rgba(4, 29, 62, 0.03)" stroke-width="1.5"></path><path d="M1274.51 805.87L1396.08 828.25" stroke="rgba(4, 29, 62, 0.03)" stroke-width="1.5"></path><path d="M1430.36 -88.63L1430.36 -88.63" stroke="rgba(4, 29, 62, 0.03)" stroke-width="1.5"></path><path d="M1430.36 -88.63L1449.8 48.33" stroke="rgba(4, 29, 62, 0.03)" stroke-width="1.5"></path><path d="M1430.36 -88.63L1589.04 -59.76" stroke="rgba(4, 29, 62, 0.03)" stroke-width="1.5"></path><path d="M1430.36 -88.63L1244.7 105.93" stroke="rgba(4, 29, 62, 0.03)" stroke-width="1.5"></path><path d="M1430.36 -88.63L1396.11 194.94" stroke="rgba(4, 29, 62, 0.03)" stroke-width="1.5"></path><path d="M1430.36 -88.63L1581.4 200" stroke="rgba(4, 29, 62, 0.03)" stroke-width="1.5"></path><path d="M1449.8 48.33L1449.8 48.33" stroke="rgba(4, 29, 62, 0.03)" stroke-width="1.5"></path><path d="M1449.8 48.33L1396.11 194.94" stroke="rgba(4, 29, 62, 0.03)" stroke-width="1.5"></path><path d="M1396.11 194.94L1396.11 194.94" stroke="rgba(4, 29, 62, 0.03)" stroke-width="1.5"></path><path d="M1396.11 194.94L1452.72 358.58" stroke="rgba(4, 29, 62, 0.03)" stroke-width="1.5"></path><path d="M1452.72 358.58L1452.72 358.58" stroke="rgba(4, 29, 62, 0.03)" stroke-width="1.5"></path><path d="M1452.72 358.58L1550.25 355.52" stroke="rgba(4, 29, 62, 0.03)" stroke-width="1.5"></path><path d="M1452.72 358.58L1430.07 535.85" stroke="rgba(4, 29, 62, 0.03)" stroke-width="1.5"></path><path d="M1452.72 358.58L1302.94 260.01" stroke="rgba(4, 29, 62, 0.03)" stroke-width="1.5"></path><path d="M1430.07 535.85L1430.07 535.85" stroke="rgba(4, 29, 62, 0.03)" stroke-width="1.5"></path><path d="M1430.07 535.85L1577.84 516.41" stroke="rgba(4, 29, 62, 0.03)" stroke-width="1.5"></path><path d="M1430.07 535.85L1398.92 687.84" stroke="rgba(4, 29, 62, 0.03)" stroke-width="1.5"></path><path d="M1398.92 687.84L1398.92 687.84" stroke="rgba(4, 29, 62, 0.03)" stroke-width="1.5"></path><path d="M1398.92 687.84L1396.08 828.25" stroke="rgba(4, 29, 62, 0.03)" stroke-width="1.5"></path><path d="M1398.92 687.84L1274.51 805.87" stroke="rgba(4, 29, 62, 0.03)" stroke-width="1.5"></path><path d="M1398.92 687.84L1582.48 665.8" stroke="rgba(4, 29, 62, 0.03)" stroke-width="1.5"></path><path d="M1396.08 828.25L1396.08 828.25" stroke="rgba(4, 29, 62, 0.03)" stroke-width="1.5"></path><path d="M1396.08 828.25L1582.48 665.8" stroke="rgba(4, 29, 62, 0.03)" stroke-width="1.5"></path><path d="M1589.04 -59.76L1589.04 -59.76" stroke="rgba(4, 29, 62, 0.03)" stroke-width="1.5"></path><path d="M1589.04 -59.76L1449.8 48.33" stroke="rgba(4, 29, 62, 0.03)" stroke-width="1.5"></path><path d="M1589.04 -59.76L1581.4 200" stroke="rgba(4, 29, 62, 0.03)" stroke-width="1.5"></path><path d="M1589.04 -59.76L1287.06 -68.87" stroke="rgba(4, 29, 62, 0.03)" stroke-width="1.5"></path><path d="M1589.04 -59.76L1396.11 194.94" stroke="rgba(4, 29, 62, 0.03)" stroke-width="1.5"></path><path d="M1581.4 200L1581.4 200" stroke="rgba(4, 29, 62, 0.03)" stroke-width="1.5"></path><path d="M1581.4 200L1550.25 355.52" stroke="rgba(4, 29, 62, 0.03)" stroke-width="1.5"></path><path d="M1581.4 200L1396.11 194.94" stroke="rgba(4, 29, 62, 0.03)" stroke-width="1.5"></path><path d="M1581.4 200L1449.8 48.33" stroke="rgba(4, 29, 62, 0.03)" stroke-width="1.5"></path><path d="M1581.4 200L1452.72 358.58" stroke="rgba(4, 29, 62, 0.03)" stroke-width="1.5"></path><path d="M1581.4 200L1302.94 260.01" stroke="rgba(4, 29, 62, 0.03)" stroke-width="1.5"></path><path d="M1550.25 355.52L1550.25 355.52" stroke="rgba(4, 29, 62, 0.03)" stroke-width="1.5"></path><path d="M1550.25 355.52L1577.84 516.41" stroke="rgba(4, 29, 62, 0.03)" stroke-width="1.5"></path><path d="M1577.84 516.41L1577.84 516.41" stroke="rgba(4, 29, 62, 0.03)" stroke-width="1.5"></path><path d="M1577.84 516.41L1582.48 665.8" stroke="rgba(4, 29, 62, 0.03)" stroke-width="1.5"></path><path d="M1577.84 516.41L1452.72 358.58" stroke="rgba(4, 29, 62, 0.03)" stroke-width="1.5"></path><path d="M1577.84 516.41L1398.92 687.84" stroke="rgba(4, 29, 62, 0.03)" stroke-width="1.5"></path><path d="M1577.84 516.41L1282.82 516.39" stroke="rgba(4, 29, 62, 0.03)" stroke-width="1.5"></path><path d="M1582.48 665.8L1582.48 665.8" stroke="rgba(4, 29, 62, 0.03)" stroke-width="1.5"></path><path d="M1582.48 665.8L1430.07 535.85" stroke="rgba(4, 29, 62, 0.03)" stroke-width="1.5"></path><circle r="5" cx="-41.04" cy="520.04" fill="rgba(4, 29, 62, 0.03)"></circle><circle r="5" cx="-45.92" cy="672.98" fill="rgba(4, 29, 62, 0.03)"></circle><circle r="5" cx="-81.55" cy="793.27" fill="rgba(4, 29, 62, 0.03)"></circle><circle r="5" cx="38.2" cy="547.71" fill="rgba(4, 29, 62, 0.03)"></circle><circle r="5" cx="86.3" cy="708.25" fill="rgba(4, 29, 62, 0.03)"></circle><circle r="5" cx="46.67" cy="839.4" fill="rgba(4, 29, 62, 0.03)"></circle><circle r="5" cx="242.95" cy="558.09" fill="rgba(4, 29, 62, 0.03)"></circle><circle r="5" cx="242.7" cy="694.42" fill="rgba(4, 29, 62, 0.03)"></circle><circle r="5" cx="242.49" cy="818.43" fill="rgba(4, 29, 62, 0.03)"></circle><circle r="5" cx="395.82" cy="390.65" fill="rgba(4, 29, 62, 0.03)"></circle><circle r="5" cx="397.44" cy="508.3" fill="rgba(4, 29, 62, 0.03)"></circle><circle r="5" cx="341.16" cy="710.4" fill="rgba(4, 29, 62, 0.03)"></circle><circle r="5" cx="526.88" cy="352.71" fill="rgba(4, 29, 62, 0.03)"></circle><circle r="5" cx="552.47" cy="677.99" fill="rgba(4, 29, 62, 0.03)"></circle><circle r="5" cx="500.4" cy="859.24" fill="rgba(4, 29, 62, 0.03)"></circle><circle r="5" cx="700.73" cy="399.23" fill="rgba(4, 29, 62, 0.03)"></circle><circle r="5" cx="641.68" cy="498.04" fill="rgba(4, 29, 62, 0.03)"></circle><circle r="5" cx="712.29" cy="660.05" fill="rgba(4, 29, 62, 0.03)"></circle><circle r="5" cx="679.28" cy="861.16" fill="rgba(4, 29, 62, 0.03)"></circle><circle r="5" cx="830.96" cy="216.07" fill="rgba(4, 29, 62, 0.03)"></circle><circle r="5" cx="841.22" cy="398.2" fill="rgba(4, 29, 62, 0.03)"></circle><circle r="5" cx="824.26" cy="526.14" fill="rgba(4, 29, 62, 0.03)"></circle><circle r="5" cx="796.95" cy="655.65" fill="rgba(4, 29, 62, 0.03)"></circle><circle r="5" cx="949.3" cy="-57.16" fill="rgba(4, 29, 62, 0.03)"></circle><circle r="5" cx="961.62" cy="63.21" fill="rgba(4, 29, 62, 0.03)"></circle><circle r="5" cx="946.24" cy="187.6" fill="rgba(4, 29, 62, 0.03)"></circle><circle r="5" cx="971.25" cy="367.06" fill="rgba(4, 29, 62, 0.03)"></circle><circle r="5" cx="967.02" cy="490.81" fill="rgba(4, 29, 62, 0.03)"></circle><circle r="5" cx="992.24" cy="660.21" fill="rgba(4, 29, 62, 0.03)"></circle><circle r="5" cx="980.65" cy="840.47" fill="rgba(4, 29, 62, 0.03)"></circle><circle r="5" cx="1100.18" cy="-109.95" fill="rgba(4, 29, 62, 0.03)"></circle><circle r="5" cx="1126.9" cy="211.22" fill="rgba(4, 29, 62, 0.03)"></circle><circle r="5" cx="1141.65" cy="395.11" fill="rgba(4, 29, 62, 0.03)"></circle><circle r="5" cx="1094.8" cy="493.04" fill="rgba(4, 29, 62, 0.03)"></circle><circle r="5" cx="1161.18" cy="656.47" fill="rgba(4, 29, 62, 0.03)"></circle><circle r="5" cx="1101.2" cy="831.84" fill="rgba(4, 29, 62, 0.03)"></circle><circle r="5" cx="1287.06" cy="-68.87" fill="rgba(4, 29, 62, 0.03)"></circle><circle r="5" cx="1244.7" cy="105.93" fill="rgba(4, 29, 62, 0.03)"></circle><circle r="5" cx="1302.94" cy="260.01" fill="rgba(4, 29, 62, 0.03)"></circle><circle r="5" cx="1281.28" cy="401.09" fill="rgba(4, 29, 62, 0.03)"></circle><circle r="5" cx="1282.82" cy="516.39" fill="rgba(4, 29, 62, 0.03)"></circle><circle r="5" cx="1309.18" cy="684.27" fill="rgba(4, 29, 62, 0.03)"></circle><circle r="5" cx="1274.51" cy="805.87" fill="rgba(4, 29, 62, 0.03)"></circle><circle r="5" cx="1430.36" cy="-88.63" fill="rgba(4, 29, 62, 0.03)"></circle><circle r="5" cx="1449.8" cy="48.33" fill="rgba(4, 29, 62, 0.03)"></circle><circle r="5" cx="1396.11" cy="194.94" fill="rgba(4, 29, 62, 0.03)"></circle><circle r="5" cx="1452.72" cy="358.58" fill="rgba(4, 29, 62, 0.03)"></circle><circle r="5" cx="1430.07" cy="535.85" fill="rgba(4, 29, 62, 0.03)"></circle><circle r="5" cx="1398.92" cy="687.84" fill="rgba(4, 29, 62, 0.03)"></circle><circle r="5" cx="1396.08" cy="828.25" fill="rgba(4, 29, 62, 0.03)"></circle><circle r="5" cx="1589.04" cy="-59.76" fill="rgba(4, 29, 62, 0.03)"></circle><circle r="5" cx="1581.4" cy="200" fill="rgba(4, 29, 62, 0.03)"></circle><circle r="5" cx="1550.25" cy="355.52" fill="rgba(4, 29, 62, 0.03)"></circle><circle r="5" cx="1577.84" cy="516.41" fill="rgba(4, 29, 62, 0.03)"></circle><circle r="5" cx="1582.48" cy="665.8" fill="rgba(4, 29, 62, 0.03)"></circle><path d="M525.79 809.55L525.79 809.55" stroke="hsla(214.10000000000002, 91.7%, 43.1%, 0.02)" stroke-width="1.5"></path><path d="M525.79 809.55L489.88 708.13" stroke="hsla(214.10000000000002, 91.7%, 43.1%, 0.02)" stroke-width="1.5"></path><path d="M525.79 809.55L370.69 858.28" stroke="hsla(214.10000000000002, 91.7%, 43.1%, 0.02)" stroke-width="1.5"></path><path d="M525.79 809.55L696.96 860.26" stroke="hsla(214.10000000000002, 91.7%, 43.1%, 0.02)" stroke-width="1.5"></path><path d="M525.79 809.55L407.73 666.36" stroke="hsla(214.10000000000002, 91.7%, 43.1%, 0.02)" stroke-width="1.5"></path><path d="M525.79 809.55L679.07 669.94" stroke="hsla(214.10000000000002, 91.7%, 43.1%, 0.02)" stroke-width="1.5"></path><path d="M679.07 669.94L679.07 669.94" stroke="hsla(214.10000000000002, 91.7%, 43.1%, 0.02)" stroke-width="1.5"></path><path d="M679.07 669.94L683.1 549.92" stroke="hsla(214.10000000000002, 91.7%, 43.1%, 0.02)" stroke-width="1.5"></path><path d="M679.07 669.94L824.68 704.57" stroke="hsla(214.10000000000002, 91.7%, 43.1%, 0.02)" stroke-width="1.5"></path><path d="M679.07 669.94L696.96 860.26" stroke="hsla(214.10000000000002, 91.7%, 43.1%, 0.02)" stroke-width="1.5"></path><path d="M679.07 669.94L489.88 708.13" stroke="hsla(214.10000000000002, 91.7%, 43.1%, 0.02)" stroke-width="1.5"></path><path d="M679.07 669.94L505.41 533.15" stroke="hsla(214.10000000000002, 91.7%, 43.1%, 0.02)" stroke-width="1.5"></path><path d="M696.96 860.26L696.96 860.26" stroke="hsla(214.10000000000002, 91.7%, 43.1%, 0.02)" stroke-width="1.5"></path><path d="M1148.06 211.12L1148.06 211.12" stroke="hsla(214.10000000000002, 91.7%, 43.1%, 0.02)" stroke-width="1.5"></path><path d="M1148.06 211.12L1238.97 219.96" stroke="hsla(214.10000000000002, 91.7%, 43.1%, 0.02)" stroke-width="1.5"></path><path d="M1148.06 211.12L1098.94 343.54" stroke="hsla(214.10000000000002, 91.7%, 43.1%, 0.02)" stroke-width="1.5"></path><path d="M1148.06 211.12L1268.18 48.69" stroke="hsla(214.10000000000002, 91.7%, 43.1%, 0.02)" stroke-width="1.5"></path><path d="M1148.06 211.12L993.32 354.05" stroke="hsla(214.10000000000002, 91.7%, 43.1%, 0.02)" stroke-width="1.5"></path><path d="M1240.61 -79.04L1240.61 -79.04" stroke="hsla(214.10000000000002, 91.7%, 43.1%, 0.02)" stroke-width="1.5"></path><path d="M1240.61 -79.04L1268.18 48.69" stroke="hsla(214.10000000000002, 91.7%, 43.1%, 0.02)" stroke-width="1.5"></path><path d="M1240.61 -79.04L1397.31 -61.69" stroke="hsla(214.10000000000002, 91.7%, 43.1%, 0.02)" stroke-width="1.5"></path><path d="M1240.61 -79.04L1434.75 56.36" stroke="hsla(214.10000000000002, 91.7%, 43.1%, 0.02)" stroke-width="1.5"></path><path d="M1240.61 -79.04L1238.97 219.96" stroke="hsla(214.10000000000002, 91.7%, 43.1%, 0.02)" stroke-width="1.5"></path><path d="M1240.61 -79.04L1148.06 211.12" stroke="hsla(214.10000000000002, 91.7%, 43.1%, 0.02)" stroke-width="1.5"></path><path d="M1243.96 492.9L1243.96 492.9" stroke="hsla(214.10000000000002, 91.7%, 43.1%, 0.02)" stroke-width="1.5"></path><path d="M1243.96 492.9L1260.75 398.11" stroke="hsla(214.10000000000002, 91.7%, 43.1%, 0.02)" stroke-width="1.5"></path><path d="M1243.96 492.9L1109.09 544.79" stroke="hsla(214.10000000000002, 91.7%, 43.1%, 0.02)" stroke-width="1.5"></path><path d="M1243.96 492.9L1411.74 521.49" stroke="hsla(214.10000000000002, 91.7%, 43.1%, 0.02)" stroke-width="1.5"></path><path d="M1243.96 492.9L1151.73 643.63" stroke="hsla(214.10000000000002, 91.7%, 43.1%, 0.02)" stroke-width="1.5"></path><path d="M1548.69 47.26L1548.69 47.26" stroke="hsla(214.10000000000002, 91.7%, 43.1%, 0.02)" stroke-width="1.5"></path><path d="M1548.69 47.26L1434.75 56.36" stroke="hsla(214.10000000000002, 91.7%, 43.1%, 0.02)" stroke-width="1.5"></path><path d="M1548.69 47.26L1595.82 -60.65" stroke="hsla(214.10000000000002, 91.7%, 43.1%, 0.02)" stroke-width="1.5"></path><path d="M1548.69 47.26L1397.31 -61.69" stroke="hsla(214.10000000000002, 91.7%, 43.1%, 0.02)" stroke-width="1.5"></path><path d="M1548.69 47.26L1558.41 252.65" stroke="hsla(214.10000000000002, 91.7%, 43.1%, 0.02)" stroke-width="1.5"></path><path d="M1558.41 252.65L1558.41 252.65" stroke="hsla(214.10000000000002, 91.7%, 43.1%, 0.02)" stroke-width="1.5"></path><path d="M1558.41 252.65L1461.18 245.34" stroke="hsla(214.10000000000002, 91.7%, 43.1%, 0.02)" stroke-width="1.5"></path><path d="M1558.41 252.65L1549.7 366.83" stroke="hsla(214.10000000000002, 91.7%, 43.1%, 0.02)" stroke-width="1.5"></path><path d="M1549.7 366.83L1549.7 366.83" stroke="hsla(214.10000000000002, 91.7%, 43.1%, 0.02)" stroke-width="1.5"></path><path d="M1549.7 366.83L1436.53 378" stroke="hsla(214.10000000000002, 91.7%, 43.1%, 0.02)" stroke-width="1.5"></path><path d="M1549.7 366.83L1461.18 245.34" stroke="hsla(214.10000000000002, 91.7%, 43.1%, 0.02)" stroke-width="1.5"></path><path d="M1549.7 366.83L1576.07 560.59" stroke="hsla(214.10000000000002, 91.7%, 43.1%, 0.02)" stroke-width="1.5"></path><path d="M1549.7 366.83L1411.74 521.49" stroke="hsla(214.10000000000002, 91.7%, 43.1%, 0.02)" stroke-width="1.5"></path><path d="M1549.7 366.83L1260.75 398.11" stroke="hsla(214.10000000000002, 91.7%, 43.1%, 0.02)" stroke-width="1.5"></path><path d="M-39.83 670.59L-39.83 670.59" stroke="hsla(214.10000000000002, 91.7%, 43.1%, 0.02)" stroke-width="1.5"></path><path d="M-39.83 670.59L85.94 664.26" stroke="hsla(214.10000000000002, 91.7%, 43.1%, 0.02)" stroke-width="1.5"></path><path d="M-39.83 670.59L37.99 814.46" stroke="hsla(214.10000000000002, 91.7%, 43.1%, 0.02)" stroke-width="1.5"></path><path d="M-39.83 670.59L-49.35 853.36" stroke="hsla(214.10000000000002, 91.7%, 43.1%, 0.02)" stroke-width="1.5"></path><path d="M-39.83 670.59L203.94 655.8" stroke="hsla(214.10000000000002, 91.7%, 43.1%, 0.02)" stroke-width="1.5"></path><path d="M-39.83 670.59L229.01 843.18" stroke="hsla(214.10000000000002, 91.7%, 43.1%, 0.02)" stroke-width="1.5"></path><path d="M-49.35 853.36L-49.35 853.36" stroke="hsla(214.10000000000002, 91.7%, 43.1%, 0.02)" stroke-width="1.5"></path><path d="M-49.35 853.36L37.99 814.46" stroke="hsla(214.10000000000002, 91.7%, 43.1%, 0.02)" stroke-width="1.5"></path><path d="M-49.35 853.36L85.94 664.26" stroke="hsla(214.10000000000002, 91.7%, 43.1%, 0.02)" stroke-width="1.5"></path><path d="M85.94 664.26L85.94 664.26" stroke="hsla(214.10000000000002, 91.7%, 43.1%, 0.02)" stroke-width="1.5"></path><path d="M85.94 664.26L203.94 655.8" stroke="hsla(214.10000000000002, 91.7%, 43.1%, 0.02)" stroke-width="1.5"></path><path d="M85.94 664.26L37.99 814.46" stroke="hsla(214.10000000000002, 91.7%, 43.1%, 0.02)" stroke-width="1.5"></path><path d="M37.99 814.46L37.99 814.46" stroke="hsla(214.10000000000002, 91.7%, 43.1%, 0.02)" stroke-width="1.5"></path><path d="M203.94 655.8L203.94 655.8" stroke="hsla(214.10000000000002, 91.7%, 43.1%, 0.02)" stroke-width="1.5"></path><path d="M203.94 655.8L229.01 843.18" stroke="hsla(214.10000000000002, 91.7%, 43.1%, 0.02)" stroke-width="1.5"></path><path d="M203.94 655.8L407.73 666.36" stroke="hsla(214.10000000000002, 91.7%, 43.1%, 0.02)" stroke-width="1.5"></path><path d="M229.01 843.18L229.01 843.18" stroke="hsla(214.10000000000002, 91.7%, 43.1%, 0.02)" stroke-width="1.5"></path><path d="M229.01 843.18L370.69 858.28" stroke="hsla(214.10000000000002, 91.7%, 43.1%, 0.02)" stroke-width="1.5"></path><path d="M229.01 843.18L37.99 814.46" stroke="hsla(214.10000000000002, 91.7%, 43.1%, 0.02)" stroke-width="1.5"></path><path d="M229.01 843.18L85.94 664.26" stroke="hsla(214.10000000000002, 91.7%, 43.1%, 0.02)" stroke-width="1.5"></path><path d="M229.01 843.18L407.73 666.36" stroke="hsla(214.10000000000002, 91.7%, 43.1%, 0.02)" stroke-width="1.5"></path><path d="M229.01 843.18L-49.35 853.36" stroke="hsla(214.10000000000002, 91.7%, 43.1%, 0.02)" stroke-width="1.5"></path><path d="M407.73 666.36L407.73 666.36" stroke="hsla(214.10000000000002, 91.7%, 43.1%, 0.02)" stroke-width="1.5"></path><path d="M407.73 666.36L489.88 708.13" stroke="hsla(214.10000000000002, 91.7%, 43.1%, 0.02)" stroke-width="1.5"></path><path d="M407.73 666.36L505.41 533.15" stroke="hsla(214.10000000000002, 91.7%, 43.1%, 0.02)" stroke-width="1.5"></path><path d="M407.73 666.36L370.69 858.28" stroke="hsla(214.10000000000002, 91.7%, 43.1%, 0.02)" stroke-width="1.5"></path><path d="M370.69 858.28L370.69 858.28" stroke="hsla(214.10000000000002, 91.7%, 43.1%, 0.02)" stroke-width="1.5"></path><path d="M370.69 858.28L489.88 708.13" stroke="hsla(214.10000000000002, 91.7%, 43.1%, 0.02)" stroke-width="1.5"></path><path d="M370.69 858.28L203.94 655.8" stroke="hsla(214.10000000000002, 91.7%, 43.1%, 0.02)" stroke-width="1.5"></path><path d="M505.41 533.15L505.41 533.15" stroke="hsla(214.10000000000002, 91.7%, 43.1%, 0.02)" stroke-width="1.5"></path><path d="M505.41 533.15L489.88 708.13" stroke="hsla(214.10000000000002, 91.7%, 43.1%, 0.02)" stroke-width="1.5"></path><path d="M505.41 533.15L683.1 549.92" stroke="hsla(214.10000000000002, 91.7%, 43.1%, 0.02)" stroke-width="1.5"></path><path d="M505.41 533.15L525.79 809.55" stroke="hsla(214.10000000000002, 91.7%, 43.1%, 0.02)" stroke-width="1.5"></path><path d="M505.41 533.15L203.94 655.8" stroke="hsla(214.10000000000002, 91.7%, 43.1%, 0.02)" stroke-width="1.5"></path><path d="M489.88 708.13L489.88 708.13" stroke="hsla(214.10000000000002, 91.7%, 43.1%, 0.02)" stroke-width="1.5"></path><path d="M683.1 549.92L683.1 549.92" stroke="hsla(214.10000000000002, 91.7%, 43.1%, 0.02)" stroke-width="1.5"></path><path d="M683.1 549.92L828.9 493.46" stroke="hsla(214.10000000000002, 91.7%, 43.1%, 0.02)" stroke-width="1.5"></path><path d="M683.1 549.92L824.68 704.57" stroke="hsla(214.10000000000002, 91.7%, 43.1%, 0.02)" stroke-width="1.5"></path><path d="M683.1 549.92L489.88 708.13" stroke="hsla(214.10000000000002, 91.7%, 43.1%, 0.02)" stroke-width="1.5"></path><path d="M683.1 549.92L407.73 666.36" stroke="hsla(214.10000000000002, 91.7%, 43.1%, 0.02)" stroke-width="1.5"></path><path d="M828.9 493.46L828.9 493.46" stroke="hsla(214.10000000000002, 91.7%, 43.1%, 0.02)" stroke-width="1.5"></path><path d="M828.9 493.46L824.68 704.57" stroke="hsla(214.10000000000002, 91.7%, 43.1%, 0.02)" stroke-width="1.5"></path><path d="M824.68 704.57L824.68 704.57" stroke="hsla(214.10000000000002, 91.7%, 43.1%, 0.02)" stroke-width="1.5"></path><path d="M824.68 704.57L979.09 642.42" stroke="hsla(214.10000000000002, 91.7%, 43.1%, 0.02)" stroke-width="1.5"></path><path d="M824.68 704.57L998.17 788.96" stroke="hsla(214.10000000000002, 91.7%, 43.1%, 0.02)" stroke-width="1.5"></path><path d="M824.68 704.57L696.96 860.26" stroke="hsla(214.10000000000002, 91.7%, 43.1%, 0.02)" stroke-width="1.5"></path><path d="M993.32 354.05L993.32 354.05" stroke="hsla(214.10000000000002, 91.7%, 43.1%, 0.02)" stroke-width="1.5"></path><path d="M993.32 354.05L1098.94 343.54" stroke="hsla(214.10000000000002, 91.7%, 43.1%, 0.02)" stroke-width="1.5"></path><path d="M993.32 354.05L828.9 493.46" stroke="hsla(214.10000000000002, 91.7%, 43.1%, 0.02)" stroke-width="1.5"></path><path d="M993.32 354.05L1109.09 544.79" stroke="hsla(214.10000000000002, 91.7%, 43.1%, 0.02)" stroke-width="1.5"></path><path d="M993.32 354.05L1260.75 398.11" stroke="hsla(214.10000000000002, 91.7%, 43.1%, 0.02)" stroke-width="1.5"></path><path d="M979.09 642.42L979.09 642.42" stroke="hsla(214.10000000000002, 91.7%, 43.1%, 0.02)" stroke-width="1.5"></path><path d="M979.09 642.42L998.17 788.96" stroke="hsla(214.10000000000002, 91.7%, 43.1%, 0.02)" stroke-width="1.5"></path><path d="M998.17 788.96L998.17 788.96" stroke="hsla(214.10000000000002, 91.7%, 43.1%, 0.02)" stroke-width="1.5"></path><path d="M998.17 788.96L1159.24 838.77" stroke="hsla(214.10000000000002, 91.7%, 43.1%, 0.02)" stroke-width="1.5"></path><path d="M1098.94 343.54L1098.94 343.54" stroke="hsla(214.10000000000002, 91.7%, 43.1%, 0.02)" stroke-width="1.5"></path><path d="M1098.94 343.54L1260.75 398.11" stroke="hsla(214.10000000000002, 91.7%, 43.1%, 0.02)" stroke-width="1.5"></path><path d="M1098.94 343.54L1238.97 219.96" stroke="hsla(214.10000000000002, 91.7%, 43.1%, 0.02)" stroke-width="1.5"></path><path d="M1098.94 343.54L1109.09 544.79" stroke="hsla(214.10000000000002, 91.7%, 43.1%, 0.02)" stroke-width="1.5"></path><path d="M1109.09 544.79L1109.09 544.79" stroke="hsla(214.10000000000002, 91.7%, 43.1%, 0.02)" stroke-width="1.5"></path><path d="M1109.09 544.79L1151.73 643.63" stroke="hsla(214.10000000000002, 91.7%, 43.1%, 0.02)" stroke-width="1.5"></path><path d="M1109.09 544.79L979.09 642.42" stroke="hsla(214.10000000000002, 91.7%, 43.1%, 0.02)" stroke-width="1.5"></path><path d="M1151.73 643.63L1151.73 643.63" stroke="hsla(214.10000000000002, 91.7%, 43.1%, 0.02)" stroke-width="1.5"></path><path d="M1151.73 643.63L1248.55 708.91" stroke="hsla(214.10000000000002, 91.7%, 43.1%, 0.02)" stroke-width="1.5"></path><path d="M1151.73 643.63L979.09 642.42" stroke="hsla(214.10000000000002, 91.7%, 43.1%, 0.02)" stroke-width="1.5"></path><path d="M1151.73 643.63L1159.24 838.77" stroke="hsla(214.10000000000002, 91.7%, 43.1%, 0.02)" stroke-width="1.5"></path><path d="M1159.24 838.77L1159.24 838.77" stroke="hsla(214.10000000000002, 91.7%, 43.1%, 0.02)" stroke-width="1.5"></path><path d="M1159.24 838.77L1298.19 840.2" stroke="hsla(214.10000000000002, 91.7%, 43.1%, 0.02)" stroke-width="1.5"></path><path d="M1159.24 838.77L1248.55 708.91" stroke="hsla(214.10000000000002, 91.7%, 43.1%, 0.02)" stroke-width="1.5"></path><path d="M1159.24 838.77L1398.53 806.72" stroke="hsla(214.10000000000002, 91.7%, 43.1%, 0.02)" stroke-width="1.5"></path><path d="M1268.18 48.69L1268.18 48.69" stroke="hsla(214.10000000000002, 91.7%, 43.1%, 0.02)" stroke-width="1.5"></path><path d="M1268.18 48.69L1434.75 56.36" stroke="hsla(214.10000000000002, 91.7%, 43.1%, 0.02)" stroke-width="1.5"></path><path d="M1268.18 48.69L1397.31 -61.69" stroke="hsla(214.10000000000002, 91.7%, 43.1%, 0.02)" stroke-width="1.5"></path><path d="M1238.97 219.96L1238.97 219.96" stroke="hsla(214.10000000000002, 91.7%, 43.1%, 0.02)" stroke-width="1.5"></path><path d="M1238.97 219.96L1268.18 48.69" stroke="hsla(214.10000000000002, 91.7%, 43.1%, 0.02)" stroke-width="1.5"></path><path d="M1238.97 219.96L1260.75 398.11" stroke="hsla(214.10000000000002, 91.7%, 43.1%, 0.02)" stroke-width="1.5"></path><path d="M1238.97 219.96L1461.18 245.34" stroke="hsla(214.10000000000002, 91.7%, 43.1%, 0.02)" stroke-width="1.5"></path><path d="M1238.97 219.96L1436.53 378" stroke="hsla(214.10000000000002, 91.7%, 43.1%, 0.02)" stroke-width="1.5"></path><path d="M1260.75 398.11L1260.75 398.11" stroke="hsla(214.10000000000002, 91.7%, 43.1%, 0.02)" stroke-width="1.5"></path><path d="M1260.75 398.11L1436.53 378" stroke="hsla(214.10000000000002, 91.7%, 43.1%, 0.02)" stroke-width="1.5"></path><path d="M1248.55 708.91L1248.55 708.91" stroke="hsla(214.10000000000002, 91.7%, 43.1%, 0.02)" stroke-width="1.5"></path><path d="M1248.55 708.91L1298.19 840.2" stroke="hsla(214.10000000000002, 91.7%, 43.1%, 0.02)" stroke-width="1.5"></path><path d="M1248.55 708.91L1394.41 706.93" stroke="hsla(214.10000000000002, 91.7%, 43.1%, 0.02)" stroke-width="1.5"></path><path d="M1248.55 708.91L1398.53 806.72" stroke="hsla(214.10000000000002, 91.7%, 43.1%, 0.02)" stroke-width="1.5"></path><path d="M1298.19 840.2L1298.19 840.2" stroke="hsla(214.10000000000002, 91.7%, 43.1%, 0.02)" stroke-width="1.5"></path><path d="M1298.19 840.2L1398.53 806.72" stroke="hsla(214.10000000000002, 91.7%, 43.1%, 0.02)" stroke-width="1.5"></path><path d="M1397.31 -61.69L1397.31 -61.69" stroke="hsla(214.10000000000002, 91.7%, 43.1%, 0.02)" stroke-width="1.5"></path><path d="M1397.31 -61.69L1434.75 56.36" stroke="hsla(214.10000000000002, 91.7%, 43.1%, 0.02)" stroke-width="1.5"></path><path d="M1397.31 -61.69L1595.82 -60.65" stroke="hsla(214.10000000000002, 91.7%, 43.1%, 0.02)" stroke-width="1.5"></path><path d="M1434.75 56.36L1434.75 56.36" stroke="hsla(214.10000000000002, 91.7%, 43.1%, 0.02)" stroke-width="1.5"></path><path d="M1461.18 245.34L1461.18 245.34" stroke="hsla(214.10000000000002, 91.7%, 43.1%, 0.02)" stroke-width="1.5"></path><path d="M1461.18 245.34L1436.53 378" stroke="hsla(214.10000000000002, 91.7%, 43.1%, 0.02)" stroke-width="1.5"></path><path d="M1461.18 245.34L1434.75 56.36" stroke="hsla(214.10000000000002, 91.7%, 43.1%, 0.02)" stroke-width="1.5"></path><path d="M1461.18 245.34L1548.69 47.26" stroke="hsla(214.10000000000002, 91.7%, 43.1%, 0.02)" stroke-width="1.5"></path><path d="M1436.53 378L1436.53 378" stroke="hsla(214.10000000000002, 91.7%, 43.1%, 0.02)" stroke-width="1.5"></path><path d="M1411.74 521.49L1411.74 521.49" stroke="hsla(214.10000000000002, 91.7%, 43.1%, 0.02)" stroke-width="1.5"></path><path d="M1411.74 521.49L1436.53 378" stroke="hsla(214.10000000000002, 91.7%, 43.1%, 0.02)" stroke-width="1.5"></path><path d="M1411.74 521.49L1576.07 560.59" stroke="hsla(214.10000000000002, 91.7%, 43.1%, 0.02)" stroke-width="1.5"></path><path d="M1411.74 521.49L1394.41 706.93" stroke="hsla(214.10000000000002, 91.7%, 43.1%, 0.02)" stroke-width="1.5"></path><path d="M1411.74 521.49L1260.75 398.11" stroke="hsla(214.10000000000002, 91.7%, 43.1%, 0.02)" stroke-width="1.5"></path><path d="M1394.41 706.93L1394.41 706.93" stroke="hsla(214.10000000000002, 91.7%, 43.1%, 0.02)" stroke-width="1.5"></path><path d="M1394.41 706.93L1398.53 806.72" stroke="hsla(214.10000000000002, 91.7%, 43.1%, 0.02)" stroke-width="1.5"></path><path d="M1394.41 706.93L1298.19 840.2" stroke="hsla(214.10000000000002, 91.7%, 43.1%, 0.02)" stroke-width="1.5"></path><path d="M1394.41 706.93L1581.55 678.72" stroke="hsla(214.10000000000002, 91.7%, 43.1%, 0.02)" stroke-width="1.5"></path><path d="M1398.53 806.72L1398.53 806.72" stroke="hsla(214.10000000000002, 91.7%, 43.1%, 0.02)" stroke-width="1.5"></path><path d="M1398.53 806.72L1552.6 857.32" stroke="hsla(214.10000000000002, 91.7%, 43.1%, 0.02)" stroke-width="1.5"></path><path d="M1398.53 806.72L1581.55 678.72" stroke="hsla(214.10000000000002, 91.7%, 43.1%, 0.02)" stroke-width="1.5"></path><path d="M1595.82 -60.65L1595.82 -60.65" stroke="hsla(214.10000000000002, 91.7%, 43.1%, 0.02)" stroke-width="1.5"></path><path d="M1595.82 -60.65L1434.75 56.36" stroke="hsla(214.10000000000002, 91.7%, 43.1%, 0.02)" stroke-width="1.5"></path><path d="M1595.82 -60.65L1558.41 252.65" stroke="hsla(214.10000000000002, 91.7%, 43.1%, 0.02)" stroke-width="1.5"></path><path d="M1595.82 -60.65L1461.18 245.34" stroke="hsla(214.10000000000002, 91.7%, 43.1%, 0.02)" stroke-width="1.5"></path><path d="M1595.82 -60.65L1268.18 48.69" stroke="hsla(214.10000000000002, 91.7%, 43.1%, 0.02)" stroke-width="1.5"></path><path d="M1576.07 560.59L1576.07 560.59" stroke="hsla(214.10000000000002, 91.7%, 43.1%, 0.02)" stroke-width="1.5"></path><path d="M1576.07 560.59L1581.55 678.72" stroke="hsla(214.10000000000002, 91.7%, 43.1%, 0.02)" stroke-width="1.5"></path><path d="M1576.07 560.59L1436.53 378" stroke="hsla(214.10000000000002, 91.7%, 43.1%, 0.02)" stroke-width="1.5"></path><path d="M1576.07 560.59L1394.41 706.93" stroke="hsla(214.10000000000002, 91.7%, 43.1%, 0.02)" stroke-width="1.5"></path><path d="M1576.07 560.59L1552.6 857.32" stroke="hsla(214.10000000000002, 91.7%, 43.1%, 0.02)" stroke-width="1.5"></path><path d="M1581.55 678.72L1581.55 678.72" stroke="hsla(214.10000000000002, 91.7%, 43.1%, 0.02)" stroke-width="1.5"></path><path d="M1581.55 678.72L1552.6 857.32" stroke="hsla(214.10000000000002, 91.7%, 43.1%, 0.02)" stroke-width="1.5"></path><path d="M1581.55 678.72L1411.74 521.49" stroke="hsla(214.10000000000002, 91.7%, 43.1%, 0.02)" stroke-width="1.5"></path><path d="M1552.6 857.32L1552.6 857.32" stroke="hsla(214.10000000000002, 91.7%, 43.1%, 0.02)" stroke-width="1.5"></path><path d="M1552.6 857.32L1394.41 706.93" stroke="hsla(214.10000000000002, 91.7%, 43.1%, 0.02)" stroke-width="1.5"></path><path d="M1552.6 857.32L1298.19 840.2" stroke="hsla(214.10000000000002, 91.7%, 43.1%, 0.02)" stroke-width="1.5"></path><circle r="25" cx="525.79" cy="809.55" fill="url(&quot;#SvgjsRadialGradient1087&quot;)"></circle><circle r="25" cx="679.07" cy="669.94" fill="url(&quot;#SvgjsRadialGradient1087&quot;)"></circle><circle r="25" cx="696.96" cy="860.26" fill="url(&quot;#SvgjsRadialGradient1087&quot;)"></circle><circle r="25" cx="1148.06" cy="211.12" fill="url(&quot;#SvgjsRadialGradient1087&quot;)"></circle><circle r="25" cx="1240.61" cy="-79.04" fill="url(&quot;#SvgjsRadialGradient1087&quot;)"></circle><circle r="25" cx="1243.96" cy="492.9" fill="url(&quot;#SvgjsRadialGradient1087&quot;)"></circle><circle r="25" cx="1548.69" cy="47.26" fill="url(&quot;#SvgjsRadialGradient1087&quot;)"></circle><circle r="25" cx="1558.41" cy="252.65" fill="url(&quot;#SvgjsRadialGradient1087&quot;)"></circle><circle r="25" cx="1549.7" cy="366.83" fill="url(&quot;#SvgjsRadialGradient1087&quot;)"></circle><circle r="5" cx="-39.83" cy="670.59" fill="rgba(253, 253, 254, 0.51)"></circle><circle r="5" cx="-49.35" cy="853.36" fill="rgba(253, 253, 254, 0.51)"></circle><circle r="5" cx="85.94" cy="664.26" fill="rgba(253, 253, 254, 0.51)"></circle><circle r="5" cx="37.99" cy="814.46" fill="rgba(253, 253, 254, 0.51)"></circle><circle r="5" cx="203.94" cy="655.8" fill="rgba(253, 253, 254, 0.51)"></circle><circle r="5" cx="229.01" cy="843.18" fill="rgba(253, 253, 254, 0.51)"></circle><circle r="5" cx="407.73" cy="666.36" fill="rgba(253, 253, 254, 0.51)"></circle><circle r="5" cx="370.69" cy="858.28" fill="rgba(253, 253, 254, 0.51)"></circle><circle r="5" cx="505.41" cy="533.15" fill="rgba(253, 253, 254, 0.51)"></circle><circle r="5" cx="489.88" cy="708.13" fill="rgba(253, 253, 254, 0.51)"></circle><circle r="5" cx="683.1" cy="549.92" fill="rgba(253, 253, 254, 0.51)"></circle><circle r="5" cx="828.9" cy="493.46" fill="rgba(253, 253, 254, 0.51)"></circle><circle r="5" cx="824.68" cy="704.57" fill="rgba(253, 253, 254, 0.51)"></circle><circle r="5" cx="993.32" cy="354.05" fill="rgba(253, 253, 254, 0.51)"></circle><circle r="5" cx="979.09" cy="642.42" fill="rgba(253, 253, 254, 0.51)"></circle><circle r="5" cx="998.17" cy="788.96" fill="rgba(253, 253, 254, 0.51)"></circle><circle r="5" cx="1098.94" cy="343.54" fill="rgba(253, 253, 254, 0.51)"></circle><circle r="5" cx="1109.09" cy="544.79" fill="rgba(253, 253, 254, 0.51)"></circle><circle r="5" cx="1151.73" cy="643.63" fill="rgba(253, 253, 254, 0.51)"></circle><circle r="5" cx="1159.24" cy="838.77" fill="rgba(253, 253, 254, 0.51)"></circle><circle r="5" cx="1268.18" cy="48.69" fill="rgba(253, 253, 254, 0.51)"></circle><circle r="5" cx="1238.97" cy="219.96" fill="rgba(253, 253, 254, 0.51)"></circle><circle r="5" cx="1260.75" cy="398.11" fill="rgba(253, 253, 254, 0.51)"></circle><circle r="5" cx="1248.55" cy="708.91" fill="rgba(253, 253, 254, 0.51)"></circle><circle r="5" cx="1298.19" cy="840.2" fill="rgba(253, 253, 254, 0.51)"></circle><circle r="5" cx="1397.31" cy="-61.69" fill="rgba(253, 253, 254, 0.51)"></circle><circle r="5" cx="1434.75" cy="56.36" fill="rgba(253, 253, 254, 0.51)"></circle><circle r="5" cx="1461.18" cy="245.34" fill="rgba(253, 253, 254, 0.51)"></circle><circle r="5" cx="1436.53" cy="378" fill="rgba(253, 253, 254, 0.51)"></circle><circle r="5" cx="1411.74" cy="521.49" fill="rgba(253, 253, 254, 0.51)"></circle><circle r="5" cx="1394.41" cy="706.93" fill="rgba(253, 253, 254, 0.51)"></circle><circle r="5" cx="1398.53" cy="806.72" fill="rgba(253, 253, 254, 0.51)"></circle><circle r="5" cx="1595.82" cy="-60.65" fill="rgba(253, 253, 254, 0.51)"></circle><circle r="5" cx="1576.07" cy="560.59" fill="rgba(253, 253, 254, 0.51)"></circle><circle r="5" cx="1581.55" cy="678.72" fill="rgba(253, 253, 254, 0.51)"></circle><circle r="5" cx="1552.6" cy="857.32" fill="rgba(253, 253, 254, 0.51)"></circle></g><defs><mask id="SvgjsMask1086"><rect width="1440" height="720" fill="#ffffff"></rect></mask><radialGradient id="SvgjsRadialGradient1087"><stop stop-color="#ffffff" offset="0.1"></stop><stop stop-color="rgba(7, 74, 162, 0.02)" offset="0.2"></stop><stop stop-color="rgba(7, 74, 162, 0)" offset="1"></stop></radialGradient></defs></svg>